<?xml version="1.0" encoding="UTF-8" standalone="no"?>
<!DOCTYPE svg PUBLIC "-//W3C//DTD SVG 1.1//EN"
 "http://www.w3.org/Graphics/SVG/1.1/DTD/svg11.dtd">
<!-- Generated by graphviz version 2.38.0 (20140413.2041)
 -->
<!-- Title: Tree Pages: 1 -->
<svg width="1537pt" height="671pt"
 viewBox="0.00 0.00 1536.50 671.00" xmlns="http://www.w3.org/2000/svg" xmlns:xlink="http://www.w3.org/1999/xlink">
<g id="graph0" class="graph" transform="scale(1 1) rotate(0) translate(4 667)">
<title>Tree</title>
<polygon fill="white" stroke="none" points="-4,4 -4,-667 1532.5,-667 1532.5,4 -4,4"/>
<!-- 0 -->
<g id="node1" class="node"><title>0</title>
<path fill="#e5399d" fill-opacity="0.717647" stroke="black" d="M895,-663C895,-663 667,-663 667,-663 661,-663 655,-657 655,-651 655,-651 655,-592 655,-592 655,-586 661,-580 667,-580 667,-580 895,-580 895,-580 901,-580 907,-586 907,-592 907,-592 907,-651 907,-651 907,-657 901,-663 895,-663"/>
<text text-anchor="middle" x="781" y="-647.8" font-family="Helvetica,sans-Serif" font-size="14.00">Z score &lt;= 2.0</text>
<text text-anchor="middle" x="781" y="-632.8" font-family="Helvetica,sans-Serif" font-size="14.00">gini = 0.438</text>
<text text-anchor="middle" x="781" y="-617.8" font-family="Helvetica,sans-Serif" font-size="14.00">samples = 4183</text>
<text text-anchor="middle" x="781" y="-602.8" font-family="Helvetica,sans-Serif" font-size="14.00">value = [144, 331, 248, 251, 117, 3092]</text>
<text text-anchor="middle" x="781" y="-587.8" font-family="Helvetica,sans-Serif" font-size="14.00">class = No Change</text>
</g>
<!-- 1 -->
<g id="node2" class="node"><title>1</title>
<path fill="#e5399d" fill-opacity="0.823529" stroke="black" d="M732,-544C732,-544 526,-544 526,-544 520,-544 514,-538 514,-532 514,-532 514,-473 514,-473 514,-467 520,-461 526,-461 526,-461 732,-461 732,-461 738,-461 744,-467 744,-473 744,-473 744,-532 744,-532 744,-538 738,-544 732,-544"/>
<text text-anchor="middle" x="629" y="-528.8" font-family="Helvetica,sans-Serif" font-size="14.00">Mid_FC &lt;= &#45;1.0</text>
<text text-anchor="middle" x="629" y="-513.8" font-family="Helvetica,sans-Serif" font-size="14.00">gini = 0.289</text>
<text text-anchor="middle" x="629" y="-498.8" font-family="Helvetica,sans-Serif" font-size="14.00">samples = 3690</text>
<text text-anchor="middle" x="629" y="-483.8" font-family="Helvetica,sans-Serif" font-size="14.00">value = [144, 304, 34, 0, 117, 3091]</text>
<text text-anchor="middle" x="629" y="-468.8" font-family="Helvetica,sans-Serif" font-size="14.00">class = No Change</text>
</g>
<!-- 0&#45;&gt;1 -->
<g id="edge1" class="edge"><title>0&#45;&gt;1</title>
<path fill="none" stroke="black" d="M728.264,-579.907C715.885,-570.379 702.594,-560.148 689.89,-550.37"/>
<polygon fill="black" stroke="black" points="691.702,-547.347 681.642,-544.021 687.432,-552.894 691.702,-547.347"/>
<text text-anchor="middle" x="684.868" y="-565.112" font-family="Helvetica,sans-Serif" font-size="14.00">True</text>
</g>
<!-- 14 -->
<g id="node15" class="node"><title>14</title>
<path fill="#399de5" fill-opacity="0.133333" stroke="black" d="M1018,-544C1018,-544 850,-544 850,-544 844,-544 838,-538 838,-532 838,-532 838,-473 838,-473 838,-467 844,-461 850,-461 850,-461 1018,-461 1018,-461 1024,-461 1030,-467 1030,-473 1030,-473 1030,-532 1030,-532 1030,-538 1024,-544 1018,-544"/>
<text text-anchor="middle" x="934" y="-528.8" font-family="Helvetica,sans-Serif" font-size="14.00">Mid_FC &lt;= 1.001</text>
<text text-anchor="middle" x="934" y="-513.8" font-family="Helvetica,sans-Serif" font-size="14.00">gini = 0.549</text>
<text text-anchor="middle" x="934" y="-498.8" font-family="Helvetica,sans-Serif" font-size="14.00">samples = 493</text>
<text text-anchor="middle" x="934" y="-483.8" font-family="Helvetica,sans-Serif" font-size="14.00">value = [0, 27, 214, 251, 0, 1]</text>
<text text-anchor="middle" x="934" y="-468.8" font-family="Helvetica,sans-Serif" font-size="14.00">class = Upregulated</text>
</g>
<!-- 0&#45;&gt;14 -->
<g id="edge14" class="edge"><title>0&#45;&gt;14</title>
<path fill="none" stroke="black" d="M834.083,-579.907C846.543,-570.379 859.922,-560.148 872.709,-550.37"/>
<polygon fill="black" stroke="black" points="875.194,-552.876 881.011,-544.021 870.942,-547.315 875.194,-552.876"/>
<text text-anchor="middle" x="877.707" y="-565.102" font-family="Helvetica,sans-Serif" font-size="14.00">False</text>
</g>
<!-- 2 -->
<g id="node3" class="node"><title>2</title>
<path fill="#e5399d" fill-opacity="0.054902" stroke="black" d="M369,-425C369,-425 193,-425 193,-425 187,-425 181,-419 181,-413 181,-413 181,-354 181,-354 181,-348 187,-342 193,-342 193,-342 369,-342 369,-342 375,-342 381,-348 381,-354 381,-354 381,-413 381,-413 381,-419 375,-425 369,-425"/>
<text text-anchor="middle" x="281" y="-409.8" font-family="Helvetica,sans-Serif" font-size="14.00">Early_FC &lt;= &#45;1.001</text>
<text text-anchor="middle" x="281" y="-394.8" font-family="Helvetica,sans-Serif" font-size="14.00">gini = 0.619</text>
<text text-anchor="middle" x="281" y="-379.8" font-family="Helvetica,sans-Serif" font-size="14.00">samples = 750</text>
<text text-anchor="middle" x="281" y="-364.8" font-family="Helvetica,sans-Serif" font-size="14.00">value = [0, 304, 0, 0, 117, 329]</text>
<text text-anchor="middle" x="281" y="-349.8" font-family="Helvetica,sans-Serif" font-size="14.00">class = No Change</text>
</g>
<!-- 1&#45;&gt;2 -->
<g id="edge2" class="edge"><title>1&#45;&gt;2</title>
<path fill="none" stroke="black" d="M513.604,-462.703C474.116,-449.427 430.068,-434.618 391.016,-421.488"/>
<polygon fill="black" stroke="black" points="391.795,-418.058 381.201,-418.188 389.565,-424.693 391.795,-418.058"/>
</g>
<!-- 7 -->
<g id="node8" class="node"><title>7</title>
<path fill="#e5399d" fill-opacity="0.937255" stroke="black" d="M717,-425C717,-425 541,-425 541,-425 535,-425 529,-419 529,-413 529,-413 529,-354 529,-354 529,-348 535,-342 541,-342 541,-342 717,-342 717,-342 723,-342 729,-348 729,-354 729,-354 729,-413 729,-413 729,-419 723,-425 717,-425"/>
<text text-anchor="middle" x="629" y="-409.8" font-family="Helvetica,sans-Serif" font-size="14.00">Early_FC &lt;= 1.011</text>
<text text-anchor="middle" x="629" y="-394.8" font-family="Helvetica,sans-Serif" font-size="14.00">gini = 0.115</text>
<text text-anchor="middle" x="629" y="-379.8" font-family="Helvetica,sans-Serif" font-size="14.00">samples = 2940</text>
<text text-anchor="middle" x="629" y="-364.8" font-family="Helvetica,sans-Serif" font-size="14.00">value = [144, 0, 34, 0, 0, 2762]</text>
<text text-anchor="middle" x="629" y="-349.8" font-family="Helvetica,sans-Serif" font-size="14.00">class = No Change</text>
</g>
<!-- 1&#45;&gt;7 -->
<g id="edge7" class="edge"><title>1&#45;&gt;7</title>
<path fill="none" stroke="black" d="M629,-460.907C629,-452.649 629,-443.864 629,-435.302"/>
<polygon fill="black" stroke="black" points="632.5,-435.021 629,-425.021 625.5,-435.021 632.5,-435.021"/>
</g>
<!-- 3 -->
<g id="node4" class="node"><title>3</title>
<path fill="#9de539" stroke="black" d="M158,-298.5C158,-298.5 12,-298.5 12,-298.5 6,-298.5 0,-292.5 0,-286.5 0,-286.5 0,-242.5 0,-242.5 0,-236.5 6,-230.5 12,-230.5 12,-230.5 158,-230.5 158,-230.5 164,-230.5 170,-236.5 170,-242.5 170,-242.5 170,-286.5 170,-286.5 170,-292.5 164,-298.5 158,-298.5"/>
<text text-anchor="middle" x="85" y="-283.3" font-family="Helvetica,sans-Serif" font-size="14.00">gini = 0.0</text>
<text text-anchor="middle" x="85" y="-268.3" font-family="Helvetica,sans-Serif" font-size="14.00">samples = 304</text>
<text text-anchor="middle" x="85" y="-253.3" font-family="Helvetica,sans-Serif" font-size="14.00">value = [0, 304, 0, 0, 0, 0]</text>
<text text-anchor="middle" x="85" y="-238.3" font-family="Helvetica,sans-Serif" font-size="14.00">class = Lowly Expressed</text>
</g>
<!-- 2&#45;&gt;3 -->
<g id="edge3" class="edge"><title>2&#45;&gt;3</title>
<path fill="none" stroke="black" d="M212.999,-341.907C192.295,-329.549 169.615,-316.01 149.173,-303.807"/>
<polygon fill="black" stroke="black" points="150.942,-300.787 140.562,-298.667 147.354,-306.798 150.942,-300.787"/>
</g>
<!-- 4 -->
<g id="node5" class="node"><title>4</title>
<path fill="#e5399d" fill-opacity="0.643137" stroke="black" d="M361.5,-306C361.5,-306 200.5,-306 200.5,-306 194.5,-306 188.5,-300 188.5,-294 188.5,-294 188.5,-235 188.5,-235 188.5,-229 194.5,-223 200.5,-223 200.5,-223 361.5,-223 361.5,-223 367.5,-223 373.5,-229 373.5,-235 373.5,-235 373.5,-294 373.5,-294 373.5,-300 367.5,-306 361.5,-306"/>
<text text-anchor="middle" x="281" y="-290.8" font-family="Helvetica,sans-Serif" font-size="14.00">Z score &lt;= &#45;2.008</text>
<text text-anchor="middle" x="281" y="-275.8" font-family="Helvetica,sans-Serif" font-size="14.00">gini = 0.387</text>
<text text-anchor="middle" x="281" y="-260.8" font-family="Helvetica,sans-Serif" font-size="14.00">samples = 446</text>
<text text-anchor="middle" x="281" y="-245.8" font-family="Helvetica,sans-Serif" font-size="14.00">value = [0, 0, 0, 0, 117, 329]</text>
<text text-anchor="middle" x="281" y="-230.8" font-family="Helvetica,sans-Serif" font-size="14.00">class = No Change</text>
</g>
<!-- 2&#45;&gt;4 -->
<g id="edge4" class="edge"><title>2&#45;&gt;4</title>
<path fill="none" stroke="black" d="M281,-341.907C281,-333.649 281,-324.864 281,-316.302"/>
<polygon fill="black" stroke="black" points="284.5,-316.021 281,-306.021 277.5,-316.021 284.5,-316.021"/>
</g>
<!-- 5 -->
<g id="node6" class="node"><title>5</title>
<path fill="#8139e5" stroke="black" d="M264,-179.5C264,-179.5 118,-179.5 118,-179.5 112,-179.5 106,-173.5 106,-167.5 106,-167.5 106,-123.5 106,-123.5 106,-117.5 112,-111.5 118,-111.5 118,-111.5 264,-111.5 264,-111.5 270,-111.5 276,-117.5 276,-123.5 276,-123.5 276,-167.5 276,-167.5 276,-173.5 270,-179.5 264,-179.5"/>
<text text-anchor="middle" x="191" y="-164.3" font-family="Helvetica,sans-Serif" font-size="14.00">gini = 0.0</text>
<text text-anchor="middle" x="191" y="-149.3" font-family="Helvetica,sans-Serif" font-size="14.00">samples = 117</text>
<text text-anchor="middle" x="191" y="-134.3" font-family="Helvetica,sans-Serif" font-size="14.00">value = [0, 0, 0, 0, 117, 0]</text>
<text text-anchor="middle" x="191" y="-119.3" font-family="Helvetica,sans-Serif" font-size="14.00">class = Downregulated</text>
</g>
<!-- 4&#45;&gt;5 -->
<g id="edge5" class="edge"><title>4&#45;&gt;5</title>
<path fill="none" stroke="black" d="M249.775,-222.907C241.032,-211.542 231.522,-199.178 222.749,-187.774"/>
<polygon fill="black" stroke="black" points="225.384,-185.459 216.513,-179.667 219.836,-189.727 225.384,-185.459"/>
</g>
<!-- 6 -->
<g id="node7" class="node"><title>6</title>
<path fill="#e5399d" stroke="black" d="M452,-179.5C452,-179.5 306,-179.5 306,-179.5 300,-179.5 294,-173.5 294,-167.5 294,-167.5 294,-123.5 294,-123.5 294,-117.5 300,-111.5 306,-111.5 306,-111.5 452,-111.5 452,-111.5 458,-111.5 464,-117.5 464,-123.5 464,-123.5 464,-167.5 464,-167.5 464,-173.5 458,-179.5 452,-179.5"/>
<text text-anchor="middle" x="379" y="-164.3" font-family="Helvetica,sans-Serif" font-size="14.00">gini = 0.0</text>
<text text-anchor="middle" x="379" y="-149.3" font-family="Helvetica,sans-Serif" font-size="14.00">samples = 329</text>
<text text-anchor="middle" x="379" y="-134.3" font-family="Helvetica,sans-Serif" font-size="14.00">value = [0, 0, 0, 0, 0, 329]</text>
<text text-anchor="middle" x="379" y="-119.3" font-family="Helvetica,sans-Serif" font-size="14.00">class = No Change</text>
</g>
<!-- 4&#45;&gt;6 -->
<g id="edge6" class="edge"><title>4&#45;&gt;6</title>
<path fill="none" stroke="black" d="M315.001,-222.907C324.613,-211.432 335.077,-198.938 344.707,-187.442"/>
<polygon fill="black" stroke="black" points="347.481,-189.58 351.219,-179.667 342.115,-185.086 347.481,-189.58"/>
</g>
<!-- 8 -->
<g id="node9" class="node"><title>8</title>
<path fill="#e5399d" stroke="black" d="M556.5,-298.5C556.5,-298.5 403.5,-298.5 403.5,-298.5 397.5,-298.5 391.5,-292.5 391.5,-286.5 391.5,-286.5 391.5,-242.5 391.5,-242.5 391.5,-236.5 397.5,-230.5 403.5,-230.5 403.5,-230.5 556.5,-230.5 556.5,-230.5 562.5,-230.5 568.5,-236.5 568.5,-242.5 568.5,-242.5 568.5,-286.5 568.5,-286.5 568.5,-292.5 562.5,-298.5 556.5,-298.5"/>
<text text-anchor="middle" x="480" y="-283.3" font-family="Helvetica,sans-Serif" font-size="14.00">gini = 0.0</text>
<text text-anchor="middle" x="480" y="-268.3" font-family="Helvetica,sans-Serif" font-size="14.00">samples = 2440</text>
<text text-anchor="middle" x="480" y="-253.3" font-family="Helvetica,sans-Serif" font-size="14.00">value = [0, 0, 0, 0, 0, 2440]</text>
<text text-anchor="middle" x="480" y="-238.3" font-family="Helvetica,sans-Serif" font-size="14.00">class = No Change</text>
</g>
<!-- 7&#45;&gt;8 -->
<g id="edge8" class="edge"><title>7&#45;&gt;8</title>
<path fill="none" stroke="black" d="M577.305,-341.907C562.129,-329.99 545.554,-316.976 530.456,-305.12"/>
<polygon fill="black" stroke="black" points="532.265,-302.09 522.238,-298.667 527.942,-307.596 532.265,-302.09"/>
</g>
<!-- 9 -->
<g id="node10" class="node"><title>9</title>
<path fill="#e5399d" fill-opacity="0.501961" stroke="black" d="M767,-306C767,-306 599,-306 599,-306 593,-306 587,-300 587,-294 587,-294 587,-235 587,-235 587,-229 593,-223 599,-223 599,-223 767,-223 767,-223 773,-223 779,-229 779,-235 779,-235 779,-294 779,-294 779,-300 773,-306 767,-306"/>
<text text-anchor="middle" x="683" y="-290.8" font-family="Helvetica,sans-Serif" font-size="14.00">Mid_FC &lt;= 1.013</text>
<text text-anchor="middle" x="683" y="-275.8" font-family="Helvetica,sans-Serif" font-size="14.00">gini = 0.498</text>
<text text-anchor="middle" x="683" y="-260.8" font-family="Helvetica,sans-Serif" font-size="14.00">samples = 500</text>
<text text-anchor="middle" x="683" y="-245.8" font-family="Helvetica,sans-Serif" font-size="14.00">value = [144, 0, 34, 0, 0, 322]</text>
<text text-anchor="middle" x="683" y="-230.8" font-family="Helvetica,sans-Serif" font-size="14.00">class = No Change</text>
</g>
<!-- 7&#45;&gt;9 -->
<g id="edge9" class="edge"><title>7&#45;&gt;9</title>
<path fill="none" stroke="black" d="M647.735,-341.907C651.714,-333.286 655.958,-324.09 660.073,-315.175"/>
<polygon fill="black" stroke="black" points="663.285,-316.567 664.298,-306.021 656.93,-313.634 663.285,-316.567"/>
</g>
<!-- 10 -->
<g id="node11" class="node"><title>10</title>
<path fill="#e5399d" fill-opacity="0.894118" stroke="black" d="M656.5,-187C656.5,-187 503.5,-187 503.5,-187 497.5,-187 491.5,-181 491.5,-175 491.5,-175 491.5,-116 491.5,-116 491.5,-110 497.5,-104 503.5,-104 503.5,-104 656.5,-104 656.5,-104 662.5,-104 668.5,-110 668.5,-116 668.5,-116 668.5,-175 668.5,-175 668.5,-181 662.5,-187 656.5,-187"/>
<text text-anchor="middle" x="580" y="-171.8" font-family="Helvetica,sans-Serif" font-size="14.00">Z score &lt;= &#45;1.999</text>
<text text-anchor="middle" x="580" y="-156.8" font-family="Helvetica,sans-Serif" font-size="14.00">gini = 0.173</text>
<text text-anchor="middle" x="580" y="-141.8" font-family="Helvetica,sans-Serif" font-size="14.00">samples = 356</text>
<text text-anchor="middle" x="580" y="-126.8" font-family="Helvetica,sans-Serif" font-size="14.00">value = [0, 0, 34, 0, 0, 322]</text>
<text text-anchor="middle" x="580" y="-111.8" font-family="Helvetica,sans-Serif" font-size="14.00">class = No Change</text>
</g>
<!-- 9&#45;&gt;10 -->
<g id="edge10" class="edge"><title>9&#45;&gt;10</title>
<path fill="none" stroke="black" d="M647.265,-222.907C639.275,-213.832 630.726,-204.121 622.494,-194.769"/>
<polygon fill="black" stroke="black" points="624.907,-192.214 615.672,-187.021 619.653,-196.839 624.907,-192.214"/>
</g>
<!-- 13 -->
<g id="node14" class="node"><title>13</title>
<path fill="#e58139" stroke="black" d="M845,-179.5C845,-179.5 699,-179.5 699,-179.5 693,-179.5 687,-173.5 687,-167.5 687,-167.5 687,-123.5 687,-123.5 687,-117.5 693,-111.5 699,-111.5 699,-111.5 845,-111.5 845,-111.5 851,-111.5 857,-117.5 857,-123.5 857,-123.5 857,-167.5 857,-167.5 857,-173.5 851,-179.5 845,-179.5"/>
<text text-anchor="middle" x="772" y="-164.3" font-family="Helvetica,sans-Serif" font-size="14.00">gini = 0.0</text>
<text text-anchor="middle" x="772" y="-149.3" font-family="Helvetica,sans-Serif" font-size="14.00">samples = 144</text>
<text text-anchor="middle" x="772" y="-134.3" font-family="Helvetica,sans-Serif" font-size="14.00">value = [144, 0, 0, 0, 0, 0]</text>
<text text-anchor="middle" x="772" y="-119.3" font-family="Helvetica,sans-Serif" font-size="14.00">class = Highly Expressed</text>
</g>
<!-- 9&#45;&gt;13 -->
<g id="edge13" class="edge"><title>9&#45;&gt;13</title>
<path fill="none" stroke="black" d="M713.878,-222.907C722.524,-211.542 731.928,-199.178 740.604,-187.774"/>
<polygon fill="black" stroke="black" points="743.502,-189.745 746.77,-179.667 737.93,-185.507 743.502,-189.745"/>
</g>
<!-- 11 -->
<g id="node12" class="node"><title>11</title>
<path fill="#39e581" stroke="black" d="M563,-68C563,-68 401,-68 401,-68 395,-68 389,-62 389,-56 389,-56 389,-12 389,-12 389,-6 395,-0 401,-0 401,-0 563,-0 563,-0 569,-0 575,-6 575,-12 575,-12 575,-56 575,-56 575,-62 569,-68 563,-68"/>
<text text-anchor="middle" x="482" y="-52.8" font-family="Helvetica,sans-Serif" font-size="14.00">gini = 0.0</text>
<text text-anchor="middle" x="482" y="-37.8" font-family="Helvetica,sans-Serif" font-size="14.00">samples = 34</text>
<text text-anchor="middle" x="482" y="-22.8" font-family="Helvetica,sans-Serif" font-size="14.00">value = [0, 0, 34, 0, 0, 0]</text>
<text text-anchor="middle" x="482" y="-7.8" font-family="Helvetica,sans-Serif" font-size="14.00">class = Changed Regulation</text>
</g>
<!-- 10&#45;&gt;11 -->
<g id="edge11" class="edge"><title>10&#45;&gt;11</title>
<path fill="none" stroke="black" d="M543.508,-103.726C535.345,-94.6054 526.686,-84.93 518.522,-75.8078"/>
<polygon fill="black" stroke="black" points="521.079,-73.417 511.802,-68.2996 515.863,-78.0853 521.079,-73.417"/>
</g>
<!-- 12 -->
<g id="node13" class="node"><title>12</title>
<path fill="#e5399d" stroke="black" d="M751,-68C751,-68 605,-68 605,-68 599,-68 593,-62 593,-56 593,-56 593,-12 593,-12 593,-6 599,-0 605,-0 605,-0 751,-0 751,-0 757,-0 763,-6 763,-12 763,-12 763,-56 763,-56 763,-62 757,-68 751,-68"/>
<text text-anchor="middle" x="678" y="-52.8" font-family="Helvetica,sans-Serif" font-size="14.00">gini = 0.0</text>
<text text-anchor="middle" x="678" y="-37.8" font-family="Helvetica,sans-Serif" font-size="14.00">samples = 322</text>
<text text-anchor="middle" x="678" y="-22.8" font-family="Helvetica,sans-Serif" font-size="14.00">value = [0, 0, 0, 0, 0, 322]</text>
<text text-anchor="middle" x="678" y="-7.8" font-family="Helvetica,sans-Serif" font-size="14.00">class = No Change</text>
</g>
<!-- 10&#45;&gt;12 -->
<g id="edge12" class="edge"><title>10&#45;&gt;12</title>
<path fill="none" stroke="black" d="M616.492,-103.726C624.655,-94.6054 633.314,-84.93 641.478,-75.8078"/>
<polygon fill="black" stroke="black" points="644.137,-78.0853 648.198,-68.2996 638.921,-73.417 644.137,-78.0853"/>
</g>
<!-- 15 -->
<g id="node16" class="node"><title>15</title>
<path fill="#39e581" fill-opacity="0.874510" stroke="black" d="M1015,-425C1015,-425 853,-425 853,-425 847,-425 841,-419 841,-413 841,-413 841,-354 841,-354 841,-348 847,-342 853,-342 853,-342 1015,-342 1015,-342 1021,-342 1027,-348 1027,-354 1027,-354 1027,-413 1027,-413 1027,-419 1021,-425 1015,-425"/>
<text text-anchor="middle" x="934" y="-409.8" font-family="Helvetica,sans-Serif" font-size="14.00">Mid_FC &lt;= &#45;1.035</text>
<text text-anchor="middle" x="934" y="-394.8" font-family="Helvetica,sans-Serif" font-size="14.00">gini = 0.199</text>
<text text-anchor="middle" x="934" y="-379.8" font-family="Helvetica,sans-Serif" font-size="14.00">samples = 241</text>
<text text-anchor="middle" x="934" y="-364.8" font-family="Helvetica,sans-Serif" font-size="14.00">value = [0, 27, 214, 0, 0, 0]</text>
<text text-anchor="middle" x="934" y="-349.8" font-family="Helvetica,sans-Serif" font-size="14.00">class = Changed Regulation</text>
</g>
<!-- 14&#45;&gt;15 -->
<g id="edge15" class="edge"><title>14&#45;&gt;15</title>
<path fill="none" stroke="black" d="M934,-460.907C934,-452.649 934,-443.864 934,-435.302"/>
<polygon fill="black" stroke="black" points="937.5,-435.021 934,-425.021 930.5,-435.021 937.5,-435.021"/>
</g>
<!-- 18 -->
<g id="node19" class="node"><title>18</title>
<path fill="#399de5" fill-opacity="0.996078" stroke="black" d="M1343,-425C1343,-425 1197,-425 1197,-425 1191,-425 1185,-419 1185,-413 1185,-413 1185,-354 1185,-354 1185,-348 1191,-342 1197,-342 1197,-342 1343,-342 1343,-342 1349,-342 1355,-348 1355,-354 1355,-354 1355,-413 1355,-413 1355,-419 1349,-425 1343,-425"/>
<text text-anchor="middle" x="1270" y="-409.8" font-family="Helvetica,sans-Serif" font-size="14.00">Z score &lt;= 5.014</text>
<text text-anchor="middle" x="1270" y="-394.8" font-family="Helvetica,sans-Serif" font-size="14.00">gini = 0.008</text>
<text text-anchor="middle" x="1270" y="-379.8" font-family="Helvetica,sans-Serif" font-size="14.00">samples = 252</text>
<text text-anchor="middle" x="1270" y="-364.8" font-family="Helvetica,sans-Serif" font-size="14.00">value = [0, 0, 0, 251, 0, 1]</text>
<text text-anchor="middle" x="1270" y="-349.8" font-family="Helvetica,sans-Serif" font-size="14.00">class = Upregulated</text>
</g>
<!-- 14&#45;&gt;18 -->
<g id="edge18" class="edge"><title>14&#45;&gt;18</title>
<path fill="none" stroke="black" d="M1030.28,-467.972C1075.82,-452.117 1130,-433.25 1175.33,-417.467"/>
<polygon fill="black" stroke="black" points="1176.56,-420.742 1184.86,-414.148 1174.26,-414.131 1176.56,-420.742"/>
</g>
<!-- 16 -->
<g id="node17" class="node"><title>16</title>
<path fill="#9de539" stroke="black" d="M950.5,-298.5C950.5,-298.5 809.5,-298.5 809.5,-298.5 803.5,-298.5 797.5,-292.5 797.5,-286.5 797.5,-286.5 797.5,-242.5 797.5,-242.5 797.5,-236.5 803.5,-230.5 809.5,-230.5 809.5,-230.5 950.5,-230.5 950.5,-230.5 956.5,-230.5 962.5,-236.5 962.5,-242.5 962.5,-242.5 962.5,-286.5 962.5,-286.5 962.5,-292.5 956.5,-298.5 950.5,-298.5"/>
<text text-anchor="middle" x="880" y="-283.3" font-family="Helvetica,sans-Serif" font-size="14.00">gini = 0.0</text>
<text text-anchor="middle" x="880" y="-268.3" font-family="Helvetica,sans-Serif" font-size="14.00">samples = 27</text>
<text text-anchor="middle" x="880" y="-253.3" font-family="Helvetica,sans-Serif" font-size="14.00">value = [0, 27, 0, 0, 0, 0]</text>
<text text-anchor="middle" x="880" y="-238.3" font-family="Helvetica,sans-Serif" font-size="14.00">class = Lowly Expressed</text>
</g>
<!-- 15&#45;&gt;16 -->
<g id="edge16" class="edge"><title>15&#45;&gt;16</title>
<path fill="none" stroke="black" d="M915.265,-341.907C910.172,-330.873 904.645,-318.898 899.51,-307.773"/>
<polygon fill="black" stroke="black" points="902.676,-306.28 895.308,-298.667 896.321,-309.213 902.676,-306.28"/>
</g>
<!-- 17 -->
<g id="node18" class="node"><title>17</title>
<path fill="#39e581" stroke="black" d="M1155,-298.5C1155,-298.5 993,-298.5 993,-298.5 987,-298.5 981,-292.5 981,-286.5 981,-286.5 981,-242.5 981,-242.5 981,-236.5 987,-230.5 993,-230.5 993,-230.5 1155,-230.5 1155,-230.5 1161,-230.5 1167,-236.5 1167,-242.5 1167,-242.5 1167,-286.5 1167,-286.5 1167,-292.5 1161,-298.5 1155,-298.5"/>
<text text-anchor="middle" x="1074" y="-283.3" font-family="Helvetica,sans-Serif" font-size="14.00">gini = 0.0</text>
<text text-anchor="middle" x="1074" y="-268.3" font-family="Helvetica,sans-Serif" font-size="14.00">samples = 214</text>
<text text-anchor="middle" x="1074" y="-253.3" font-family="Helvetica,sans-Serif" font-size="14.00">value = [0, 0, 214, 0, 0, 0]</text>
<text text-anchor="middle" x="1074" y="-238.3" font-family="Helvetica,sans-Serif" font-size="14.00">class = Changed Regulation</text>
</g>
<!-- 15&#45;&gt;17 -->
<g id="edge17" class="edge"><title>15&#45;&gt;17</title>
<path fill="none" stroke="black" d="M982.572,-341.907C996.832,-329.99 1012.41,-316.976 1026.59,-305.12"/>
<polygon fill="black" stroke="black" points="1028.88,-307.765 1034.31,-298.667 1024.4,-302.394 1028.88,-307.765"/>
</g>
<!-- 19 -->
<g id="node20" class="node"><title>19</title>
<path fill="#399de5" stroke="black" d="M1343,-298.5C1343,-298.5 1197,-298.5 1197,-298.5 1191,-298.5 1185,-292.5 1185,-286.5 1185,-286.5 1185,-242.5 1185,-242.5 1185,-236.5 1191,-230.5 1197,-230.5 1197,-230.5 1343,-230.5 1343,-230.5 1349,-230.5 1355,-236.5 1355,-242.5 1355,-242.5 1355,-286.5 1355,-286.5 1355,-292.5 1349,-298.5 1343,-298.5"/>
<text text-anchor="middle" x="1270" y="-283.3" font-family="Helvetica,sans-Serif" font-size="14.00">gini = 0.0</text>
<text text-anchor="middle" x="1270" y="-268.3" font-family="Helvetica,sans-Serif" font-size="14.00">samples = 251</text>
<text text-anchor="middle" x="1270" y="-253.3" font-family="Helvetica,sans-Serif" font-size="14.00">value = [0, 0, 0, 251, 0, 0]</text>
<text text-anchor="middle" x="1270" y="-238.3" font-family="Helvetica,sans-Serif" font-size="14.00">class = Upregulated</text>
</g>
<!-- 18&#45;&gt;19 -->
<g id="edge19" class="edge"><title>18&#45;&gt;19</title>
<path fill="none" stroke="black" d="M1270,-341.907C1270,-331.204 1270,-319.615 1270,-308.776"/>
<polygon fill="black" stroke="black" points="1273.5,-308.667 1270,-298.667 1266.5,-308.667 1273.5,-308.667"/>
</g>
<!-- 20 -->
<g id="node21" class="node"><title>20</title>
<path fill="#e5399d" stroke="black" d="M1516.5,-298.5C1516.5,-298.5 1385.5,-298.5 1385.5,-298.5 1379.5,-298.5 1373.5,-292.5 1373.5,-286.5 1373.5,-286.5 1373.5,-242.5 1373.5,-242.5 1373.5,-236.5 1379.5,-230.5 1385.5,-230.5 1385.5,-230.5 1516.5,-230.5 1516.5,-230.5 1522.5,-230.5 1528.5,-236.5 1528.5,-242.5 1528.5,-242.5 1528.5,-286.5 1528.5,-286.5 1528.5,-292.5 1522.5,-298.5 1516.5,-298.5"/>
<text text-anchor="middle" x="1451" y="-283.3" font-family="Helvetica,sans-Serif" font-size="14.00">gini = 0.0</text>
<text text-anchor="middle" x="1451" y="-268.3" font-family="Helvetica,sans-Serif" font-size="14.00">samples = 1</text>
<text text-anchor="middle" x="1451" y="-253.3" font-family="Helvetica,sans-Serif" font-size="14.00">value = [0, 0, 0, 0, 0, 1]</text>
<text text-anchor="middle" x="1451" y="-238.3" font-family="Helvetica,sans-Serif" font-size="14.00">class = No Change</text>
</g>
<!-- 18&#45;&gt;20 -->
<g id="edge20" class="edge"><title>18&#45;&gt;20</title>
<path fill="none" stroke="black" d="M1332.8,-341.907C1351.75,-329.659 1372.49,-316.252 1391.23,-304.135"/>
<polygon fill="black" stroke="black" points="1393.19,-307.035 1399.69,-298.667 1389.39,-301.156 1393.19,-307.035"/>
</g>
</g>
</svg>
