<?xml version="1.0" encoding="UTF-8" standalone="no"?>
<!DOCTYPE svg PUBLIC "-//W3C//DTD SVG 1.1//EN"
 "http://www.w3.org/Graphics/SVG/1.1/DTD/svg11.dtd">
<!-- Generated by graphviz version 2.38.0 (20140413.2041)
 -->
<!-- Title: Tree Pages: 1 -->
<svg width="743pt" height="552pt"
 viewBox="0.00 0.00 743.00 552.00" xmlns="http://www.w3.org/2000/svg" xmlns:xlink="http://www.w3.org/1999/xlink">
<g id="graph0" class="graph" transform="scale(1 1) rotate(0) translate(4 548)">
<title>Tree</title>
<polygon fill="white" stroke="none" points="-4,4 -4,-548 739,-548 739,4 -4,4"/>
<!-- 0 -->
<g id="node1" class="node"><title>0</title>
<path fill="#e5399d" fill-opacity="0.062745" stroke="black" d="M445,-544C445,-544 269,-544 269,-544 263,-544 257,-538 257,-532 257,-532 257,-473 257,-473 257,-467 263,-461 269,-461 269,-461 445,-461 445,-461 451,-461 457,-467 457,-473 457,-473 457,-532 457,-532 457,-538 451,-544 445,-544"/>
<text text-anchor="middle" x="357" y="-528.8" font-family="Helvetica,sans-Serif" font-size="14.00">Z score &lt;= &#45;0.072</text>
<text text-anchor="middle" x="357" y="-513.8" font-family="Helvetica,sans-Serif" font-size="14.00">gini = 0.829</text>
<text text-anchor="middle" x="357" y="-498.8" font-family="Helvetica,sans-Serif" font-size="14.00">samples = 112</text>
<text text-anchor="middle" x="357" y="-483.8" font-family="Helvetica,sans-Serif" font-size="14.00">value = [18, 17, 16, 19, 17, 25]</text>
<text text-anchor="middle" x="357" y="-468.8" font-family="Helvetica,sans-Serif" font-size="14.00">class = No Change</text>
</g>
<!-- 1 -->
<g id="node2" class="node"><title>1</title>
<path fill="#e5399d" fill-opacity="0.321569" stroke="black" d="M332,-425C332,-425 186,-425 186,-425 180,-425 174,-419 174,-413 174,-413 174,-354 174,-354 174,-348 180,-342 186,-342 186,-342 332,-342 332,-342 338,-342 344,-348 344,-354 344,-354 344,-413 344,-413 344,-419 338,-425 332,-425"/>
<text text-anchor="middle" x="259" y="-409.8" font-family="Helvetica,sans-Serif" font-size="14.00">Mid_FC &lt;= &#45;1.038</text>
<text text-anchor="middle" x="259" y="-394.8" font-family="Helvetica,sans-Serif" font-size="14.00">gini = 0.482</text>
<text text-anchor="middle" x="259" y="-379.8" font-family="Helvetica,sans-Serif" font-size="14.00">samples = 42</text>
<text text-anchor="middle" x="259" y="-364.8" font-family="Helvetica,sans-Serif" font-size="14.00">value = [0, 0, 0, 0, 17, 25]</text>
<text text-anchor="middle" x="259" y="-349.8" font-family="Helvetica,sans-Serif" font-size="14.00">class = No Change</text>
</g>
<!-- 0&#45;&gt;1 -->
<g id="edge1" class="edge"><title>0&#45;&gt;1</title>
<path fill="none" stroke="black" d="M322.999,-460.907C315.398,-451.832 307.264,-442.121 299.431,-432.769"/>
<polygon fill="black" stroke="black" points="302.045,-430.439 292.941,-425.021 296.679,-434.934 302.045,-430.439"/>
<text text-anchor="middle" x="290.74" y="-446.224" font-family="Helvetica,sans-Serif" font-size="14.00">True</text>
</g>
<!-- 4 -->
<g id="node5" class="node"><title>4</title>
<path fill="#399de5" fill-opacity="0.019608" stroke="black" d="M535.5,-425C535.5,-425 374.5,-425 374.5,-425 368.5,-425 362.5,-419 362.5,-413 362.5,-413 362.5,-354 362.5,-354 362.5,-348 368.5,-342 374.5,-342 374.5,-342 535.5,-342 535.5,-342 541.5,-342 547.5,-348 547.5,-354 547.5,-354 547.5,-413 547.5,-413 547.5,-419 541.5,-425 535.5,-425"/>
<text text-anchor="middle" x="455" y="-409.8" font-family="Helvetica,sans-Serif" font-size="14.00">Early_FC &lt;= 0.846</text>
<text text-anchor="middle" x="455" y="-394.8" font-family="Helvetica,sans-Serif" font-size="14.00">gini = 0.749</text>
<text text-anchor="middle" x="455" y="-379.8" font-family="Helvetica,sans-Serif" font-size="14.00">samples = 70</text>
<text text-anchor="middle" x="455" y="-364.8" font-family="Helvetica,sans-Serif" font-size="14.00">value = [18, 17, 16, 19, 0, 0]</text>
<text text-anchor="middle" x="455" y="-349.8" font-family="Helvetica,sans-Serif" font-size="14.00">class = Upregulated</text>
</g>
<!-- 0&#45;&gt;4 -->
<g id="edge4" class="edge"><title>0&#45;&gt;4</title>
<path fill="none" stroke="black" d="M391.001,-460.907C398.602,-451.832 406.736,-442.121 414.569,-432.769"/>
<polygon fill="black" stroke="black" points="417.321,-434.934 421.059,-425.021 411.955,-430.439 417.321,-434.934"/>
<text text-anchor="middle" x="423.26" y="-446.224" font-family="Helvetica,sans-Serif" font-size="14.00">False</text>
</g>
<!-- 2 -->
<g id="node3" class="node"><title>2</title>
<path fill="#8139e5" stroke="black" d="M150,-298.5C150,-298.5 12,-298.5 12,-298.5 6,-298.5 0,-292.5 0,-286.5 0,-286.5 0,-242.5 0,-242.5 0,-236.5 6,-230.5 12,-230.5 12,-230.5 150,-230.5 150,-230.5 156,-230.5 162,-236.5 162,-242.5 162,-242.5 162,-286.5 162,-286.5 162,-292.5 156,-298.5 150,-298.5"/>
<text text-anchor="middle" x="81" y="-283.3" font-family="Helvetica,sans-Serif" font-size="14.00">gini = 0.0</text>
<text text-anchor="middle" x="81" y="-268.3" font-family="Helvetica,sans-Serif" font-size="14.00">samples = 17</text>
<text text-anchor="middle" x="81" y="-253.3" font-family="Helvetica,sans-Serif" font-size="14.00">value = [0, 0, 0, 0, 17, 0]</text>
<text text-anchor="middle" x="81" y="-238.3" font-family="Helvetica,sans-Serif" font-size="14.00">class = Downregulated</text>
</g>
<!-- 1&#45;&gt;2 -->
<g id="edge2" class="edge"><title>1&#45;&gt;2</title>
<path fill="none" stroke="black" d="M197.244,-341.907C178.778,-329.769 158.579,-316.493 140.276,-304.462"/>
<polygon fill="black" stroke="black" points="141.738,-301.235 131.459,-298.667 137.893,-307.084 141.738,-301.235"/>
</g>
<!-- 3 -->
<g id="node4" class="node"><title>3</title>
<path fill="#e5399d" stroke="black" d="M330,-298.5C330,-298.5 192,-298.5 192,-298.5 186,-298.5 180,-292.5 180,-286.5 180,-286.5 180,-242.5 180,-242.5 180,-236.5 186,-230.5 192,-230.5 192,-230.5 330,-230.5 330,-230.5 336,-230.5 342,-236.5 342,-242.5 342,-242.5 342,-286.5 342,-286.5 342,-292.5 336,-298.5 330,-298.5"/>
<text text-anchor="middle" x="261" y="-283.3" font-family="Helvetica,sans-Serif" font-size="14.00">gini = 0.0</text>
<text text-anchor="middle" x="261" y="-268.3" font-family="Helvetica,sans-Serif" font-size="14.00">samples = 25</text>
<text text-anchor="middle" x="261" y="-253.3" font-family="Helvetica,sans-Serif" font-size="14.00">value = [0, 0, 0, 0, 0, 25]</text>
<text text-anchor="middle" x="261" y="-238.3" font-family="Helvetica,sans-Serif" font-size="14.00">class = No Change</text>
</g>
<!-- 1&#45;&gt;3 -->
<g id="edge3" class="edge"><title>1&#45;&gt;3</title>
<path fill="none" stroke="black" d="M259.694,-341.907C259.877,-331.204 260.075,-319.615 260.26,-308.776"/>
<polygon fill="black" stroke="black" points="263.762,-308.725 260.433,-298.667 256.763,-308.606 263.762,-308.725"/>
</g>
<!-- 5 -->
<g id="node6" class="node"><title>5</title>
<path fill="#399de5" fill-opacity="0.058824" stroke="black" d="M529.5,-306C529.5,-306 376.5,-306 376.5,-306 370.5,-306 364.5,-300 364.5,-294 364.5,-294 364.5,-235 364.5,-235 364.5,-229 370.5,-223 376.5,-223 376.5,-223 529.5,-223 529.5,-223 535.5,-223 541.5,-229 541.5,-235 541.5,-235 541.5,-294 541.5,-294 541.5,-300 535.5,-306 529.5,-306"/>
<text text-anchor="middle" x="453" y="-290.8" font-family="Helvetica,sans-Serif" font-size="14.00">Z score &lt;= 2.142</text>
<text text-anchor="middle" x="453" y="-275.8" font-family="Helvetica,sans-Serif" font-size="14.00">gini = 0.665</text>
<text text-anchor="middle" x="453" y="-260.8" font-family="Helvetica,sans-Serif" font-size="14.00">samples = 52</text>
<text text-anchor="middle" x="453" y="-245.8" font-family="Helvetica,sans-Serif" font-size="14.00">value = [0, 17, 16, 19, 0, 0]</text>
<text text-anchor="middle" x="453" y="-230.8" font-family="Helvetica,sans-Serif" font-size="14.00">class = Upregulated</text>
</g>
<!-- 4&#45;&gt;5 -->
<g id="edge5" class="edge"><title>4&#45;&gt;5</title>
<path fill="none" stroke="black" d="M454.306,-341.907C454.163,-333.558 454.011,-324.671 453.864,-316.02"/>
<polygon fill="black" stroke="black" points="457.363,-315.959 453.693,-306.021 450.364,-316.079 457.363,-315.959"/>
</g>
<!-- 10 -->
<g id="node11" class="node"><title>10</title>
<path fill="#e58139" stroke="black" d="M715,-298.5C715,-298.5 571,-298.5 571,-298.5 565,-298.5 559,-292.5 559,-286.5 559,-286.5 559,-242.5 559,-242.5 559,-236.5 565,-230.5 571,-230.5 571,-230.5 715,-230.5 715,-230.5 721,-230.5 727,-236.5 727,-242.5 727,-242.5 727,-286.5 727,-286.5 727,-292.5 721,-298.5 715,-298.5"/>
<text text-anchor="middle" x="643" y="-283.3" font-family="Helvetica,sans-Serif" font-size="14.00">gini = 0.0</text>
<text text-anchor="middle" x="643" y="-268.3" font-family="Helvetica,sans-Serif" font-size="14.00">samples = 18</text>
<text text-anchor="middle" x="643" y="-253.3" font-family="Helvetica,sans-Serif" font-size="14.00">value = [18, 0, 0, 0, 0, 0]</text>
<text text-anchor="middle" x="643" y="-238.3" font-family="Helvetica,sans-Serif" font-size="14.00">class = Highly Expressed</text>
</g>
<!-- 4&#45;&gt;10 -->
<g id="edge10" class="edge"><title>4&#45;&gt;10</title>
<path fill="none" stroke="black" d="M520.226,-341.907C539.995,-329.604 561.644,-316.131 581.183,-303.971"/>
<polygon fill="black" stroke="black" points="583.065,-306.922 589.706,-298.667 579.367,-300.979 583.065,-306.922"/>
</g>
<!-- 6 -->
<g id="node7" class="node"><title>6</title>
<path fill="#399de5" stroke="black" d="M430,-179.5C430,-179.5 292,-179.5 292,-179.5 286,-179.5 280,-173.5 280,-167.5 280,-167.5 280,-123.5 280,-123.5 280,-117.5 286,-111.5 292,-111.5 292,-111.5 430,-111.5 430,-111.5 436,-111.5 442,-117.5 442,-123.5 442,-123.5 442,-167.5 442,-167.5 442,-173.5 436,-179.5 430,-179.5"/>
<text text-anchor="middle" x="361" y="-164.3" font-family="Helvetica,sans-Serif" font-size="14.00">gini = 0.0</text>
<text text-anchor="middle" x="361" y="-149.3" font-family="Helvetica,sans-Serif" font-size="14.00">samples = 19</text>
<text text-anchor="middle" x="361" y="-134.3" font-family="Helvetica,sans-Serif" font-size="14.00">value = [0, 0, 0, 19, 0, 0]</text>
<text text-anchor="middle" x="361" y="-119.3" font-family="Helvetica,sans-Serif" font-size="14.00">class = Upregulated</text>
</g>
<!-- 5&#45;&gt;6 -->
<g id="edge6" class="edge"><title>5&#45;&gt;6</title>
<path fill="none" stroke="black" d="M421.081,-222.907C412.144,-211.542 402.422,-199.178 393.455,-187.774"/>
<polygon fill="black" stroke="black" points="396.013,-185.364 387.08,-179.667 390.51,-189.691 396.013,-185.364"/>
</g>
<!-- 7 -->
<g id="node8" class="node"><title>7</title>
<path fill="#9de539" fill-opacity="0.058824" stroke="black" d="M618,-187C618,-187 472,-187 472,-187 466,-187 460,-181 460,-175 460,-175 460,-116 460,-116 460,-110 466,-104 472,-104 472,-104 618,-104 618,-104 624,-104 630,-110 630,-116 630,-116 630,-175 630,-175 630,-181 624,-187 618,-187"/>
<text text-anchor="middle" x="545" y="-171.8" font-family="Helvetica,sans-Serif" font-size="14.00">Mid_FC &lt;= &#45;0.985</text>
<text text-anchor="middle" x="545" y="-156.8" font-family="Helvetica,sans-Serif" font-size="14.00">gini = 0.5</text>
<text text-anchor="middle" x="545" y="-141.8" font-family="Helvetica,sans-Serif" font-size="14.00">samples = 33</text>
<text text-anchor="middle" x="545" y="-126.8" font-family="Helvetica,sans-Serif" font-size="14.00">value = [0, 17, 16, 0, 0, 0]</text>
<text text-anchor="middle" x="545" y="-111.8" font-family="Helvetica,sans-Serif" font-size="14.00">class = Lowly Expressed</text>
</g>
<!-- 5&#45;&gt;7 -->
<g id="edge7" class="edge"><title>5&#45;&gt;7</title>
<path fill="none" stroke="black" d="M484.919,-222.907C491.984,-213.923 499.539,-204.315 506.824,-195.05"/>
<polygon fill="black" stroke="black" points="509.708,-197.045 513.137,-187.021 504.205,-192.718 509.708,-197.045"/>
</g>
<!-- 8 -->
<g id="node9" class="node"><title>8</title>
<path fill="#9de539" stroke="black" d="M518.5,-68C518.5,-68 377.5,-68 377.5,-68 371.5,-68 365.5,-62 365.5,-56 365.5,-56 365.5,-12 365.5,-12 365.5,-6 371.5,-0 377.5,-0 377.5,-0 518.5,-0 518.5,-0 524.5,-0 530.5,-6 530.5,-12 530.5,-12 530.5,-56 530.5,-56 530.5,-62 524.5,-68 518.5,-68"/>
<text text-anchor="middle" x="448" y="-52.8" font-family="Helvetica,sans-Serif" font-size="14.00">gini = 0.0</text>
<text text-anchor="middle" x="448" y="-37.8" font-family="Helvetica,sans-Serif" font-size="14.00">samples = 17</text>
<text text-anchor="middle" x="448" y="-22.8" font-family="Helvetica,sans-Serif" font-size="14.00">value = [0, 17, 0, 0, 0, 0]</text>
<text text-anchor="middle" x="448" y="-7.8" font-family="Helvetica,sans-Serif" font-size="14.00">class = Lowly Expressed</text>
</g>
<!-- 7&#45;&gt;8 -->
<g id="edge8" class="edge"><title>7&#45;&gt;8</title>
<path fill="none" stroke="black" d="M508.881,-103.726C500.801,-94.6054 492.23,-84.93 484.149,-75.8078"/>
<polygon fill="black" stroke="black" points="486.749,-73.4642 477.498,-68.2996 481.509,-78.1058 486.749,-73.4642"/>
</g>
<!-- 9 -->
<g id="node10" class="node"><title>9</title>
<path fill="#39e581" stroke="black" d="M723,-68C723,-68 561,-68 561,-68 555,-68 549,-62 549,-56 549,-56 549,-12 549,-12 549,-6 555,-0 561,-0 561,-0 723,-0 723,-0 729,-0 735,-6 735,-12 735,-12 735,-56 735,-56 735,-62 729,-68 723,-68"/>
<text text-anchor="middle" x="642" y="-52.8" font-family="Helvetica,sans-Serif" font-size="14.00">gini = 0.0</text>
<text text-anchor="middle" x="642" y="-37.8" font-family="Helvetica,sans-Serif" font-size="14.00">samples = 16</text>
<text text-anchor="middle" x="642" y="-22.8" font-family="Helvetica,sans-Serif" font-size="14.00">value = [0, 0, 16, 0, 0, 0]</text>
<text text-anchor="middle" x="642" y="-7.8" font-family="Helvetica,sans-Serif" font-size="14.00">class = Changed Regulation</text>
</g>
<!-- 7&#45;&gt;9 -->
<g id="edge9" class="edge"><title>7&#45;&gt;9</title>
<path fill="none" stroke="black" d="M581.119,-103.726C589.199,-94.6054 597.77,-84.93 605.851,-75.8078"/>
<polygon fill="black" stroke="black" points="608.491,-78.1058 612.502,-68.2996 603.251,-73.4642 608.491,-78.1058"/>
</g>
</g>
</svg>
