<?xml version="1.0" encoding="utf-8" standalone="no"?>
<!DOCTYPE svg PUBLIC "-//W3C//DTD SVG 1.1//EN"
  "http://www.w3.org/Graphics/SVG/1.1/DTD/svg11.dtd">
<!-- Created with matplotlib (http://matplotlib.org/) -->
<svg height="720pt" version="1.1" viewBox="0 0 720 720" width="720pt" xmlns="http://www.w3.org/2000/svg" xmlns:xlink="http://www.w3.org/1999/xlink">
 <defs>
  <style type="text/css">
*{stroke-linecap:butt;stroke-linejoin:round;}
  </style>
 </defs>
 <g id="figure_1">
  <g id="patch_1">
   <path d="M 0 720 
L 720 720 
L 720 0 
L 0 0 
z
" style="fill:#ffffff;"/>
  </g>
  <g id="axes_1">
   <g id="patch_2">
    <path d="M 90 333.490909 
L 648 333.490909 
L 648 86.4 
L 90 86.4 
z
" style="fill:#eaeaf2;"/>
   </g>
   <g id="matplotlib.axis_1">
    <g id="xtick_1">
     <g id="line2d_1">
      <path clip-path="url(#p25b1bb3911)" d="M 115.363636 333.490909 
L 115.363636 86.4 
" style="fill:none;stroke:#ffffff;stroke-linecap:round;"/>
     </g>
     <g id="line2d_2"/>
     <g id="text_1">
      <!-- 0.75 -->
      <defs>
       <path d="M 4.15625 35.296875 
Q 4.15625 48 6.765625 55.734375 
Q 9.375 63.484375 14.515625 67.671875 
Q 19.671875 71.875 27.484375 71.875 
Q 33.25 71.875 37.59375 69.546875 
Q 41.9375 67.234375 44.765625 62.859375 
Q 47.609375 58.5 49.21875 52.21875 
Q 50.828125 45.953125 50.828125 35.296875 
Q 50.828125 22.703125 48.234375 14.96875 
Q 45.65625 7.234375 40.5 3 
Q 35.359375 -1.21875 27.484375 -1.21875 
Q 17.140625 -1.21875 11.234375 6.203125 
Q 4.15625 15.140625 4.15625 35.296875 
z
M 13.1875 35.296875 
Q 13.1875 17.671875 17.3125 11.828125 
Q 21.4375 6 27.484375 6 
Q 33.546875 6 37.671875 11.859375 
Q 41.796875 17.71875 41.796875 35.296875 
Q 41.796875 52.984375 37.671875 58.78125 
Q 33.546875 64.59375 27.390625 64.59375 
Q 21.34375 64.59375 17.71875 59.46875 
Q 13.1875 52.9375 13.1875 35.296875 
z
" id="ArialMT-30"/>
       <path d="M 9.078125 0 
L 9.078125 10.015625 
L 19.09375 10.015625 
L 19.09375 0 
z
" id="ArialMT-2e"/>
       <path d="M 4.734375 62.203125 
L 4.734375 70.65625 
L 51.078125 70.65625 
L 51.078125 63.8125 
Q 44.234375 56.546875 37.515625 44.484375 
Q 30.8125 32.421875 27.15625 19.671875 
Q 24.515625 10.6875 23.78125 0 
L 14.75 0 
Q 14.890625 8.453125 18.0625 20.40625 
Q 21.234375 32.375 27.171875 43.484375 
Q 33.109375 54.59375 39.796875 62.203125 
z
" id="ArialMT-37"/>
       <path d="M 4.15625 18.75 
L 13.375 19.53125 
Q 14.40625 12.796875 18.140625 9.390625 
Q 21.875 6 27.15625 6 
Q 33.5 6 37.890625 10.78125 
Q 42.28125 15.578125 42.28125 23.484375 
Q 42.28125 31 38.0625 35.34375 
Q 33.84375 39.703125 27 39.703125 
Q 22.75 39.703125 19.328125 37.765625 
Q 15.921875 35.84375 13.96875 32.765625 
L 5.71875 33.84375 
L 12.640625 70.609375 
L 48.25 70.609375 
L 48.25 62.203125 
L 19.671875 62.203125 
L 15.828125 42.96875 
Q 22.265625 47.46875 29.34375 47.46875 
Q 38.71875 47.46875 45.15625 40.96875 
Q 51.609375 34.46875 51.609375 24.265625 
Q 51.609375 14.546875 45.953125 7.46875 
Q 39.0625 -1.21875 27.15625 -1.21875 
Q 17.390625 -1.21875 11.203125 4.25 
Q 5.03125 9.71875 4.15625 18.75 
z
" id="ArialMT-35"/>
      </defs>
      <g style="fill:#262626;" transform="translate(105.633168 347.648722)scale(0.1 -0.1)">
       <use xlink:href="#ArialMT-30"/>
       <use x="55.615234" xlink:href="#ArialMT-2e"/>
       <use x="83.398438" xlink:href="#ArialMT-37"/>
       <use x="139.013672" xlink:href="#ArialMT-35"/>
      </g>
     </g>
    </g>
    <g id="xtick_2">
     <g id="line2d_3">
      <path clip-path="url(#p25b1bb3911)" d="M 224.819805 333.490909 
L 224.819805 86.4 
" style="fill:none;stroke:#ffffff;stroke-linecap:round;"/>
     </g>
     <g id="line2d_4"/>
     <g id="text_2">
      <!-- 0.80 -->
      <defs>
       <path d="M 17.671875 38.8125 
Q 12.203125 40.828125 9.5625 44.53125 
Q 6.9375 48.25 6.9375 53.421875 
Q 6.9375 61.234375 12.546875 66.546875 
Q 18.171875 71.875 27.484375 71.875 
Q 36.859375 71.875 42.578125 66.421875 
Q 48.296875 60.984375 48.296875 53.171875 
Q 48.296875 48.1875 45.671875 44.5 
Q 43.0625 40.828125 37.75 38.8125 
Q 44.34375 36.671875 47.78125 31.875 
Q 51.21875 27.09375 51.21875 20.453125 
Q 51.21875 11.28125 44.71875 5.03125 
Q 38.234375 -1.21875 27.640625 -1.21875 
Q 17.046875 -1.21875 10.546875 5.046875 
Q 4.046875 11.328125 4.046875 20.703125 
Q 4.046875 27.6875 7.59375 32.390625 
Q 11.140625 37.109375 17.671875 38.8125 
z
M 15.921875 53.71875 
Q 15.921875 48.640625 19.1875 45.40625 
Q 22.46875 42.1875 27.6875 42.1875 
Q 32.765625 42.1875 36.015625 45.375 
Q 39.265625 48.578125 39.265625 53.21875 
Q 39.265625 58.0625 35.90625 61.359375 
Q 32.5625 64.65625 27.59375 64.65625 
Q 22.5625 64.65625 19.234375 61.421875 
Q 15.921875 58.203125 15.921875 53.71875 
z
M 13.09375 20.65625 
Q 13.09375 16.890625 14.875 13.375 
Q 16.65625 9.859375 20.171875 7.921875 
Q 23.6875 6 27.734375 6 
Q 34.03125 6 38.125 10.046875 
Q 42.234375 14.109375 42.234375 20.359375 
Q 42.234375 26.703125 38.015625 30.859375 
Q 33.796875 35.015625 27.4375 35.015625 
Q 21.234375 35.015625 17.15625 30.90625 
Q 13.09375 26.8125 13.09375 20.65625 
z
" id="ArialMT-38"/>
      </defs>
      <g style="fill:#262626;" transform="translate(215.089336 347.648722)scale(0.1 -0.1)">
       <use xlink:href="#ArialMT-30"/>
       <use x="55.615234" xlink:href="#ArialMT-2e"/>
       <use x="83.398438" xlink:href="#ArialMT-38"/>
       <use x="139.013672" xlink:href="#ArialMT-30"/>
      </g>
     </g>
    </g>
    <g id="xtick_3">
     <g id="line2d_5">
      <path clip-path="url(#p25b1bb3911)" d="M 334.275974 333.490909 
L 334.275974 86.4 
" style="fill:none;stroke:#ffffff;stroke-linecap:round;"/>
     </g>
     <g id="line2d_6"/>
     <g id="text_3">
      <!-- 0.85 -->
      <g style="fill:#262626;" transform="translate(324.545505 347.648722)scale(0.1 -0.1)">
       <use xlink:href="#ArialMT-30"/>
       <use x="55.615234" xlink:href="#ArialMT-2e"/>
       <use x="83.398438" xlink:href="#ArialMT-38"/>
       <use x="139.013672" xlink:href="#ArialMT-35"/>
      </g>
     </g>
    </g>
    <g id="xtick_4">
     <g id="line2d_7">
      <path clip-path="url(#p25b1bb3911)" d="M 443.732143 333.490909 
L 443.732143 86.4 
" style="fill:none;stroke:#ffffff;stroke-linecap:round;"/>
     </g>
     <g id="line2d_8"/>
     <g id="text_4">
      <!-- 0.90 -->
      <defs>
       <path d="M 5.46875 16.546875 
L 13.921875 17.328125 
Q 14.984375 11.375 18.015625 8.6875 
Q 21.046875 6 25.78125 6 
Q 29.828125 6 32.875 7.859375 
Q 35.9375 9.71875 37.890625 12.8125 
Q 39.84375 15.921875 41.15625 21.1875 
Q 42.484375 26.46875 42.484375 31.9375 
Q 42.484375 32.515625 42.4375 33.6875 
Q 39.796875 29.5 35.234375 26.875 
Q 30.671875 24.265625 25.34375 24.265625 
Q 16.453125 24.265625 10.296875 30.703125 
Q 4.15625 37.15625 4.15625 47.703125 
Q 4.15625 58.59375 10.578125 65.234375 
Q 17 71.875 26.65625 71.875 
Q 33.640625 71.875 39.421875 68.109375 
Q 45.21875 64.359375 48.21875 57.390625 
Q 51.21875 50.4375 51.21875 37.25 
Q 51.21875 23.53125 48.234375 15.40625 
Q 45.265625 7.28125 39.375 3.03125 
Q 33.5 -1.21875 25.59375 -1.21875 
Q 17.1875 -1.21875 11.859375 3.4375 
Q 6.546875 8.109375 5.46875 16.546875 
z
M 41.453125 48.140625 
Q 41.453125 55.71875 37.421875 60.15625 
Q 33.40625 64.59375 27.734375 64.59375 
Q 21.875 64.59375 17.53125 59.8125 
Q 13.1875 55.03125 13.1875 47.40625 
Q 13.1875 40.578125 17.3125 36.296875 
Q 21.4375 32.03125 27.484375 32.03125 
Q 33.59375 32.03125 37.515625 36.296875 
Q 41.453125 40.578125 41.453125 48.140625 
z
" id="ArialMT-39"/>
      </defs>
      <g style="fill:#262626;" transform="translate(434.001674 347.648722)scale(0.1 -0.1)">
       <use xlink:href="#ArialMT-30"/>
       <use x="55.615234" xlink:href="#ArialMT-2e"/>
       <use x="83.398438" xlink:href="#ArialMT-39"/>
       <use x="139.013672" xlink:href="#ArialMT-30"/>
      </g>
     </g>
    </g>
    <g id="xtick_5">
     <g id="line2d_9">
      <path clip-path="url(#p25b1bb3911)" d="M 553.188312 333.490909 
L 553.188312 86.4 
" style="fill:none;stroke:#ffffff;stroke-linecap:round;"/>
     </g>
     <g id="line2d_10"/>
     <g id="text_5">
      <!-- 0.95 -->
      <g style="fill:#262626;" transform="translate(543.457843 347.648722)scale(0.1 -0.1)">
       <use xlink:href="#ArialMT-30"/>
       <use x="55.615234" xlink:href="#ArialMT-2e"/>
       <use x="83.398438" xlink:href="#ArialMT-39"/>
       <use x="139.013672" xlink:href="#ArialMT-35"/>
      </g>
     </g>
    </g>
   </g>
   <g id="matplotlib.axis_2">
    <g id="ytick_1">
     <g id="line2d_11">
      <path clip-path="url(#p25b1bb3911)" d="M 90 311.524809 
L 648 311.524809 
" style="fill:none;stroke:#ffffff;stroke-linecap:round;"/>
     </g>
     <g id="line2d_12"/>
     <g id="text_6">
      <!-- 0.75 -->
      <g style="fill:#262626;" transform="translate(63.539062 315.103715)scale(0.1 -0.1)">
       <use xlink:href="#ArialMT-30"/>
       <use x="55.615234" xlink:href="#ArialMT-2e"/>
       <use x="83.398438" xlink:href="#ArialMT-37"/>
       <use x="139.013672" xlink:href="#ArialMT-35"/>
      </g>
     </g>
    </g>
    <g id="ytick_2">
     <g id="line2d_13">
      <path clip-path="url(#p25b1bb3911)" d="M 90 264.578636 
L 648 264.578636 
" style="fill:none;stroke:#ffffff;stroke-linecap:round;"/>
     </g>
     <g id="line2d_14"/>
     <g id="text_7">
      <!-- 0.80 -->
      <g style="fill:#262626;" transform="translate(63.539062 268.157542)scale(0.1 -0.1)">
       <use xlink:href="#ArialMT-30"/>
       <use x="55.615234" xlink:href="#ArialMT-2e"/>
       <use x="83.398438" xlink:href="#ArialMT-38"/>
       <use x="139.013672" xlink:href="#ArialMT-30"/>
      </g>
     </g>
    </g>
    <g id="ytick_3">
     <g id="line2d_15">
      <path clip-path="url(#p25b1bb3911)" d="M 90 217.632463 
L 648 217.632463 
" style="fill:none;stroke:#ffffff;stroke-linecap:round;"/>
     </g>
     <g id="line2d_16"/>
     <g id="text_8">
      <!-- 0.85 -->
      <g style="fill:#262626;" transform="translate(63.539062 221.211369)scale(0.1 -0.1)">
       <use xlink:href="#ArialMT-30"/>
       <use x="55.615234" xlink:href="#ArialMT-2e"/>
       <use x="83.398438" xlink:href="#ArialMT-38"/>
       <use x="139.013672" xlink:href="#ArialMT-35"/>
      </g>
     </g>
    </g>
    <g id="ytick_4">
     <g id="line2d_17">
      <path clip-path="url(#p25b1bb3911)" d="M 90 170.686289 
L 648 170.686289 
" style="fill:none;stroke:#ffffff;stroke-linecap:round;"/>
     </g>
     <g id="line2d_18"/>
     <g id="text_9">
      <!-- 0.90 -->
      <g style="fill:#262626;" transform="translate(63.539062 174.265196)scale(0.1 -0.1)">
       <use xlink:href="#ArialMT-30"/>
       <use x="55.615234" xlink:href="#ArialMT-2e"/>
       <use x="83.398438" xlink:href="#ArialMT-39"/>
       <use x="139.013672" xlink:href="#ArialMT-30"/>
      </g>
     </g>
    </g>
    <g id="ytick_5">
     <g id="line2d_19">
      <path clip-path="url(#p25b1bb3911)" d="M 90 123.740116 
L 648 123.740116 
" style="fill:none;stroke:#ffffff;stroke-linecap:round;"/>
     </g>
     <g id="line2d_20"/>
     <g id="text_10">
      <!-- 0.95 -->
      <g style="fill:#262626;" transform="translate(63.539062 127.319023)scale(0.1 -0.1)">
       <use xlink:href="#ArialMT-30"/>
       <use x="55.615234" xlink:href="#ArialMT-2e"/>
       <use x="83.398438" xlink:href="#ArialMT-39"/>
       <use x="139.013672" xlink:href="#ArialMT-35"/>
      </g>
     </g>
    </g>
    <g id="text_11">
     <!-- R2 -->
     <defs>
      <path d="M 7.859375 0 
L 7.859375 71.578125 
L 39.59375 71.578125 
Q 49.171875 71.578125 54.140625 69.640625 
Q 59.125 67.71875 62.109375 62.828125 
Q 65.09375 57.953125 65.09375 52.046875 
Q 65.09375 44.4375 60.15625 39.203125 
Q 55.21875 33.984375 44.921875 32.5625 
Q 48.6875 30.765625 50.640625 29 
Q 54.78125 25.203125 58.5 19.484375 
L 70.953125 0 
L 59.03125 0 
L 49.5625 14.890625 
Q 45.40625 21.34375 42.71875 24.75 
Q 40.046875 28.171875 37.921875 29.53125 
Q 35.796875 30.90625 33.59375 31.453125 
Q 31.984375 31.78125 28.328125 31.78125 
L 17.328125 31.78125 
L 17.328125 0 
z
M 17.328125 39.984375 
L 37.703125 39.984375 
Q 44.1875 39.984375 47.84375 41.328125 
Q 51.515625 42.671875 53.421875 45.625 
Q 55.328125 48.578125 55.328125 52.046875 
Q 55.328125 57.125 51.640625 60.390625 
Q 47.953125 63.671875 39.984375 63.671875 
L 17.328125 63.671875 
z
" id="ArialMT-52"/>
      <path d="M 50.34375 8.453125 
L 50.34375 0 
L 3.03125 0 
Q 2.9375 3.171875 4.046875 6.109375 
Q 5.859375 10.9375 9.828125 15.625 
Q 13.8125 20.3125 21.34375 26.46875 
Q 33.015625 36.03125 37.109375 41.625 
Q 41.21875 47.21875 41.21875 52.203125 
Q 41.21875 57.421875 37.46875 61 
Q 33.734375 64.59375 27.734375 64.59375 
Q 21.390625 64.59375 17.578125 60.78125 
Q 13.765625 56.984375 13.71875 50.25 
L 4.6875 51.171875 
Q 5.609375 61.28125 11.65625 66.578125 
Q 17.71875 71.875 27.9375 71.875 
Q 38.234375 71.875 44.234375 66.15625 
Q 50.25 60.453125 50.25 52 
Q 50.25 47.703125 48.484375 43.546875 
Q 46.734375 39.40625 42.65625 34.8125 
Q 38.578125 30.21875 29.109375 22.21875 
Q 21.1875 15.578125 18.9375 13.203125 
Q 16.703125 10.84375 15.234375 8.453125 
z
" id="ArialMT-32"/>
     </defs>
     <g style="fill:#262626;" transform="translate(57.352812 216.976001)rotate(-90)scale(0.11 -0.11)">
      <use xlink:href="#ArialMT-52"/>
      <use x="72.216797" xlink:href="#ArialMT-32"/>
     </g>
    </g>
   </g>
   <g id="line2d_21">
    <defs>
     <path d="M 0 1.75 
C 0.464105 1.75 0.909265 1.565609 1.237437 1.237437 
C 1.565609 0.909265 1.75 0.464105 1.75 0 
C 1.75 -0.464105 1.565609 -0.909265 1.237437 -1.237437 
C 0.909265 -1.565609 0.464105 -1.75 0 -1.75 
C -0.464105 -1.75 -0.909265 -1.565609 -1.237437 -1.237437 
C -1.565609 -0.909265 -1.75 -0.464105 -1.75 0 
C -1.75 0.464105 -1.565609 0.909265 -1.237437 1.237437 
C -0.909265 1.565609 -0.464105 1.75 0 1.75 
z
" id="mbebc9693f9"/>
    </defs>
    <g clip-path="url(#p25b1bb3911)">
     <use style="fill:#4c72b0;" x="115.363636" xlink:href="#mbebc9693f9" y="322.259504"/>
     <use style="fill:#4c72b0;" x="133.480519" xlink:href="#mbebc9693f9" y="302.408538"/>
     <use style="fill:#4c72b0;" x="151.597403" xlink:href="#mbebc9693f9" y="293.436136"/>
     <use style="fill:#4c72b0;" x="169.714286" xlink:href="#mbebc9693f9" y="273.766564"/>
     <use style="fill:#4c72b0;" x="187.831169" xlink:href="#mbebc9693f9" y="268.388456"/>
     <use style="fill:#4c72b0;" x="205.948052" xlink:href="#mbebc9693f9" y="253.351904"/>
     <use style="fill:#4c72b0;" x="224.064935" xlink:href="#mbebc9693f9" y="239.942476"/>
     <use style="fill:#4c72b0;" x="242.181818" xlink:href="#mbebc9693f9" y="237.678048"/>
     <use style="fill:#4c72b0;" x="260.298701" xlink:href="#mbebc9693f9" y="225.890032"/>
     <use style="fill:#4c72b0;" x="278.415584" xlink:href="#mbebc9693f9" y="213.089635"/>
     <use style="fill:#4c72b0;" x="296.532468" xlink:href="#mbebc9693f9" y="206.468864"/>
     <use style="fill:#4c72b0;" x="314.649351" xlink:href="#mbebc9693f9" y="195.980402"/>
     <use style="fill:#4c72b0;" x="332.766234" xlink:href="#mbebc9693f9" y="192.908966"/>
     <use style="fill:#4c72b0;" x="350.883117" xlink:href="#mbebc9693f9" y="179.393774"/>
     <use style="fill:#4c72b0;" x="369" xlink:href="#mbebc9693f9" y="176.098827"/>
     <use style="fill:#4c72b0;" x="387.116883" xlink:href="#mbebc9693f9" y="169.019331"/>
     <use style="fill:#4c72b0;" x="405.233766" xlink:href="#mbebc9693f9" y="164.474272"/>
     <use style="fill:#4c72b0;" x="423.350649" xlink:href="#mbebc9693f9" y="147.17118"/>
     <use style="fill:#4c72b0;" x="441.467532" xlink:href="#mbebc9693f9" y="141.697489"/>
     <use style="fill:#4c72b0;" x="459.584416" xlink:href="#mbebc9693f9" y="136.441915"/>
     <use style="fill:#4c72b0;" x="477.701299" xlink:href="#mbebc9693f9" y="134.363656"/>
     <use style="fill:#4c72b0;" x="495.818182" xlink:href="#mbebc9693f9" y="124.346257"/>
     <use style="fill:#4c72b0;" x="513.935065" xlink:href="#mbebc9693f9" y="122.257072"/>
     <use style="fill:#4c72b0;" x="532.051948" xlink:href="#mbebc9693f9" y="117.027158"/>
     <use style="fill:#4c72b0;" x="550.168831" xlink:href="#mbebc9693f9" y="112.361061"/>
     <use style="fill:#4c72b0;" x="568.285714" xlink:href="#mbebc9693f9" y="110.466099"/>
     <use style="fill:#4c72b0;" x="586.402597" xlink:href="#mbebc9693f9" y="98.06748"/>
     <use style="fill:#4c72b0;" x="604.519481" xlink:href="#mbebc9693f9" y="97.631405"/>
     <use style="fill:#4c72b0;" x="622.636364" xlink:href="#mbebc9693f9" y="173.186892"/>
    </g>
   </g>
   <g id="line2d_22">
    <path clip-path="url(#p25b1bb3911)" d="M 115.363636 311.472067 
L 120.487603 308.696641 
L 125.61157 305.89595 
L 130.735537 303.071349 
L 135.859504 300.224194 
L 140.983471 297.355839 
L 146.107438 294.467641 
L 151.231405 291.560954 
L 156.355372 288.637135 
L 161.479339 285.697537 
L 166.603306 282.743517 
L 171.727273 279.77643 
L 176.85124 276.797631 
L 181.975207 273.808475 
L 187.099174 270.810318 
L 192.22314 267.804515 
L 197.347107 264.792422 
L 202.471074 261.775394 
L 207.595041 258.754785 
L 212.719008 255.731952 
L 217.842975 252.70825 
L 222.966942 249.685034 
L 228.090909 246.663659 
L 233.214876 243.64548 
L 238.338843 240.631854 
L 243.46281 237.624135 
L 248.586777 234.623679 
L 253.710744 231.631841 
L 258.834711 228.649976 
L 263.958678 225.67944 
L 269.082645 222.721588 
L 274.206612 219.777775 
L 279.330579 216.849356 
L 284.454545 213.937688 
L 289.578512 211.044124 
L 294.702479 208.170022 
L 299.826446 205.316735 
L 304.950413 202.485619 
L 310.07438 199.67803 
L 315.198347 196.895323 
L 320.322314 194.138853 
L 325.446281 191.409975 
L 330.570248 188.710046 
L 335.694215 186.040419 
L 340.818182 183.402451 
L 345.942149 180.797496 
L 351.066116 178.226911 
L 356.190083 175.69205 
L 361.31405 173.194269 
L 366.438017 170.734923 
L 371.561983 168.315368 
L 376.68595 165.936958 
L 381.809917 163.601049 
L 386.933884 161.308996 
L 392.057851 159.062156 
L 397.181818 156.861882 
L 402.305785 154.70953 
L 407.429752 152.606457 
L 412.553719 150.554016 
L 417.677686 148.553563 
L 422.801653 146.606454 
L 427.92562 144.714044 
L 433.049587 142.877689 
L 438.173554 141.098743 
L 443.297521 139.378561 
L 448.421488 137.7185 
L 453.545455 136.119915 
L 458.669421 134.58416 
L 463.793388 133.112592 
L 468.917355 131.706565 
L 474.041322 130.367435 
L 479.165289 129.096557 
L 484.289256 127.895287 
L 489.413223 126.764979 
L 494.53719 125.70699 
L 499.661157 124.722674 
L 504.785124 123.813387 
L 509.909091 122.980484 
L 515.033058 122.22532 
L 520.157025 121.549251 
L 525.280992 120.953632 
L 530.404959 120.439819 
L 535.528926 120.009166 
L 540.652893 119.663029 
L 545.77686 119.402764 
L 550.900826 119.229725 
L 556.024793 119.145269 
L 561.14876 119.150749 
L 566.272727 119.247523 
L 571.396694 119.436944 
L 576.520661 119.720368 
L 581.644628 120.099151 
L 586.768595 120.574648 
L 591.892562 121.148215 
L 597.016529 121.821206 
L 602.140496 122.594976 
L 607.264463 123.470882 
L 612.38843 124.450279 
L 617.512397 125.534521 
L 622.636364 126.724965 
" style="fill:none;stroke:#55a868;stroke-linecap:round;stroke-width:1.75;"/>
   </g>
   <g id="patch_3">
    <path d="M 90 333.490909 
L 90 86.4 
" style="fill:none;"/>
   </g>
   <g id="patch_4">
    <path d="M 648 333.490909 
L 648 86.4 
" style="fill:none;"/>
   </g>
   <g id="patch_5">
    <path d="M 90 333.490909 
L 648 333.490909 
" style="fill:none;"/>
   </g>
   <g id="patch_6">
    <path d="M 90 86.4 
L 648 86.4 
" style="fill:none;"/>
   </g>
   <g id="patch_7">
    <path d="M 487.413223 207.16446 
Q 487.413223 175.13197 487.413223 143.09948 
L 483.413223 143.09948 
Q 486.413223 137.098756 489.413223 131.098032 
Q 492.413223 137.098756 495.413223 143.09948 
L 491.413223 143.09948 
Q 491.413223 175.13197 491.413223 207.16446 
L 487.413223 207.16446 
z
" style="stroke:#000000;stroke-linecap:round;stroke-width:0.3;"/>
   </g>
   <g id="text_12">
    <!-- Derivative falls below 0.5 at cutoff 0.92 -->
    <defs>
     <path d="M 7.71875 0 
L 7.71875 71.578125 
L 32.375 71.578125 
Q 40.71875 71.578125 45.125 70.5625 
Q 51.265625 69.140625 55.609375 65.4375 
Q 61.28125 60.640625 64.078125 53.1875 
Q 66.890625 45.75 66.890625 36.1875 
Q 66.890625 28.03125 64.984375 21.734375 
Q 63.09375 15.4375 60.109375 11.296875 
Q 57.125 7.171875 53.578125 4.796875 
Q 50.046875 2.4375 45.046875 1.21875 
Q 40.046875 0 33.546875 0 
z
M 17.1875 8.453125 
L 32.46875 8.453125 
Q 39.546875 8.453125 43.578125 9.765625 
Q 47.609375 11.078125 50 13.484375 
Q 53.375 16.84375 55.25 22.53125 
Q 57.125 28.21875 57.125 36.328125 
Q 57.125 47.5625 53.4375 53.59375 
Q 49.75 59.625 44.484375 61.671875 
Q 40.671875 63.140625 32.234375 63.140625 
L 17.1875 63.140625 
z
" id="ArialMT-44"/>
     <path d="M 42.09375 16.703125 
L 51.171875 15.578125 
Q 49.03125 7.625 43.21875 3.21875 
Q 37.40625 -1.171875 28.375 -1.171875 
Q 17 -1.171875 10.328125 5.828125 
Q 3.65625 12.84375 3.65625 25.484375 
Q 3.65625 38.578125 10.390625 45.796875 
Q 17.140625 53.03125 27.875 53.03125 
Q 38.28125 53.03125 44.875 45.953125 
Q 51.46875 38.875 51.46875 26.03125 
Q 51.46875 25.25 51.421875 23.6875 
L 12.75 23.6875 
Q 13.234375 15.140625 17.578125 10.59375 
Q 21.921875 6.0625 28.421875 6.0625 
Q 33.25 6.0625 36.671875 8.59375 
Q 40.09375 11.140625 42.09375 16.703125 
z
M 13.234375 30.90625 
L 42.1875 30.90625 
Q 41.609375 37.453125 38.875 40.71875 
Q 34.671875 45.796875 27.984375 45.796875 
Q 21.921875 45.796875 17.796875 41.75 
Q 13.671875 37.703125 13.234375 30.90625 
z
" id="ArialMT-65"/>
     <path d="M 6.5 0 
L 6.5 51.859375 
L 14.40625 51.859375 
L 14.40625 44 
Q 17.4375 49.515625 20 51.265625 
Q 22.5625 53.03125 25.640625 53.03125 
Q 30.078125 53.03125 34.671875 50.203125 
L 31.640625 42.046875 
Q 28.421875 43.953125 25.203125 43.953125 
Q 22.3125 43.953125 20.015625 42.21875 
Q 17.71875 40.484375 16.75 37.40625 
Q 15.28125 32.71875 15.28125 27.15625 
L 15.28125 0 
z
" id="ArialMT-72"/>
     <path d="M 6.640625 61.46875 
L 6.640625 71.578125 
L 15.4375 71.578125 
L 15.4375 61.46875 
z
M 6.640625 0 
L 6.640625 51.859375 
L 15.4375 51.859375 
L 15.4375 0 
z
" id="ArialMT-69"/>
     <path d="M 21 0 
L 1.265625 51.859375 
L 10.546875 51.859375 
L 21.6875 20.796875 
Q 23.484375 15.765625 25 10.359375 
Q 26.171875 14.453125 28.265625 20.21875 
L 39.796875 51.859375 
L 48.828125 51.859375 
L 29.203125 0 
z
" id="ArialMT-76"/>
     <path d="M 40.4375 6.390625 
Q 35.546875 2.25 31.03125 0.53125 
Q 26.515625 -1.171875 21.34375 -1.171875 
Q 12.796875 -1.171875 8.203125 3 
Q 3.609375 7.171875 3.609375 13.671875 
Q 3.609375 17.484375 5.34375 20.625 
Q 7.078125 23.78125 9.890625 25.6875 
Q 12.703125 27.59375 16.21875 28.5625 
Q 18.796875 29.25 24.03125 29.890625 
Q 34.671875 31.15625 39.703125 32.90625 
Q 39.75 34.71875 39.75 35.203125 
Q 39.75 40.578125 37.25 42.78125 
Q 33.890625 45.75 27.25 45.75 
Q 21.046875 45.75 18.09375 43.578125 
Q 15.140625 41.40625 13.71875 35.890625 
L 5.125 37.0625 
Q 6.296875 42.578125 8.984375 45.96875 
Q 11.671875 49.359375 16.75 51.1875 
Q 21.828125 53.03125 28.515625 53.03125 
Q 35.15625 53.03125 39.296875 51.46875 
Q 43.453125 49.90625 45.40625 47.53125 
Q 47.359375 45.171875 48.140625 41.546875 
Q 48.578125 39.3125 48.578125 33.453125 
L 48.578125 21.734375 
Q 48.578125 9.46875 49.140625 6.21875 
Q 49.703125 2.984375 51.375 0 
L 42.1875 0 
Q 40.828125 2.734375 40.4375 6.390625 
z
M 39.703125 26.03125 
Q 34.90625 24.078125 25.34375 22.703125 
Q 19.921875 21.921875 17.671875 20.9375 
Q 15.4375 19.96875 14.203125 18.09375 
Q 12.984375 16.21875 12.984375 13.921875 
Q 12.984375 10.40625 15.640625 8.0625 
Q 18.3125 5.71875 23.4375 5.71875 
Q 28.515625 5.71875 32.46875 7.9375 
Q 36.421875 10.15625 38.28125 14.015625 
Q 39.703125 17 39.703125 22.796875 
z
" id="ArialMT-61"/>
     <path d="M 25.78125 7.859375 
L 27.046875 0.09375 
Q 23.34375 -0.6875 20.40625 -0.6875 
Q 15.625 -0.6875 12.984375 0.828125 
Q 10.359375 2.34375 9.28125 4.8125 
Q 8.203125 7.28125 8.203125 15.1875 
L 8.203125 45.015625 
L 1.765625 45.015625 
L 1.765625 51.859375 
L 8.203125 51.859375 
L 8.203125 64.703125 
L 16.9375 69.96875 
L 16.9375 51.859375 
L 25.78125 51.859375 
L 25.78125 45.015625 
L 16.9375 45.015625 
L 16.9375 14.703125 
Q 16.9375 10.9375 17.40625 9.859375 
Q 17.875 8.796875 18.921875 8.15625 
Q 19.96875 7.515625 21.921875 7.515625 
Q 23.390625 7.515625 25.78125 7.859375 
z
" id="ArialMT-74"/>
     <path id="ArialMT-20"/>
     <path d="M 8.6875 0 
L 8.6875 45.015625 
L 0.921875 45.015625 
L 0.921875 51.859375 
L 8.6875 51.859375 
L 8.6875 57.375 
Q 8.6875 62.59375 9.625 65.140625 
Q 10.890625 68.5625 14.078125 70.671875 
Q 17.28125 72.796875 23.046875 72.796875 
Q 26.765625 72.796875 31.25 71.921875 
L 29.9375 64.265625 
Q 27.203125 64.75 24.75 64.75 
Q 20.75 64.75 19.09375 63.03125 
Q 17.4375 61.328125 17.4375 56.640625 
L 17.4375 51.859375 
L 27.546875 51.859375 
L 27.546875 45.015625 
L 17.4375 45.015625 
L 17.4375 0 
z
" id="ArialMT-66"/>
     <path d="M 6.390625 0 
L 6.390625 71.578125 
L 15.1875 71.578125 
L 15.1875 0 
z
" id="ArialMT-6c"/>
     <path d="M 3.078125 15.484375 
L 11.765625 16.84375 
Q 12.5 11.625 15.84375 8.84375 
Q 19.1875 6.0625 25.203125 6.0625 
Q 31.25 6.0625 34.171875 8.515625 
Q 37.109375 10.984375 37.109375 14.3125 
Q 37.109375 17.28125 34.515625 19 
Q 32.71875 20.171875 25.53125 21.96875 
Q 15.875 24.421875 12.140625 26.203125 
Q 8.40625 27.984375 6.46875 31.125 
Q 4.546875 34.28125 4.546875 38.09375 
Q 4.546875 41.546875 6.125 44.5 
Q 7.71875 47.46875 10.453125 49.421875 
Q 12.5 50.921875 16.03125 51.96875 
Q 19.578125 53.03125 23.640625 53.03125 
Q 29.734375 53.03125 34.34375 51.265625 
Q 38.96875 49.515625 41.15625 46.5 
Q 43.359375 43.5 44.1875 38.484375 
L 35.59375 37.3125 
Q 35.015625 41.3125 32.203125 43.546875 
Q 29.390625 45.796875 24.265625 45.796875 
Q 18.21875 45.796875 15.625 43.796875 
Q 13.03125 41.796875 13.03125 39.109375 
Q 13.03125 37.40625 14.109375 36.03125 
Q 15.1875 34.625 17.484375 33.6875 
Q 18.796875 33.203125 25.25 31.453125 
Q 34.578125 28.953125 38.25 27.359375 
Q 41.9375 25.78125 44.03125 22.75 
Q 46.140625 19.734375 46.140625 15.234375 
Q 46.140625 10.84375 43.578125 6.953125 
Q 41.015625 3.078125 36.171875 0.953125 
Q 31.34375 -1.171875 25.25 -1.171875 
Q 15.140625 -1.171875 9.84375 3.03125 
Q 4.546875 7.234375 3.078125 15.484375 
z
" id="ArialMT-73"/>
     <path d="M 14.703125 0 
L 6.546875 0 
L 6.546875 71.578125 
L 15.328125 71.578125 
L 15.328125 46.046875 
Q 20.90625 53.03125 29.546875 53.03125 
Q 34.328125 53.03125 38.59375 51.09375 
Q 42.875 49.171875 45.625 45.671875 
Q 48.390625 42.1875 49.953125 37.25 
Q 51.515625 32.328125 51.515625 26.703125 
Q 51.515625 13.375 44.921875 6.09375 
Q 38.328125 -1.171875 29.109375 -1.171875 
Q 19.921875 -1.171875 14.703125 6.5 
z
M 14.59375 26.3125 
Q 14.59375 17 17.140625 12.84375 
Q 21.296875 6.0625 28.375 6.0625 
Q 34.125 6.0625 38.328125 11.0625 
Q 42.53125 16.0625 42.53125 25.984375 
Q 42.53125 36.140625 38.5 40.96875 
Q 34.46875 45.796875 28.765625 45.796875 
Q 23 45.796875 18.796875 40.796875 
Q 14.59375 35.796875 14.59375 26.3125 
z
" id="ArialMT-62"/>
     <path d="M 3.328125 25.921875 
Q 3.328125 40.328125 11.328125 47.265625 
Q 18.015625 53.03125 27.640625 53.03125 
Q 38.328125 53.03125 45.109375 46.015625 
Q 51.90625 39.015625 51.90625 26.65625 
Q 51.90625 16.65625 48.90625 10.90625 
Q 45.90625 5.171875 40.15625 2 
Q 34.421875 -1.171875 27.640625 -1.171875 
Q 16.75 -1.171875 10.03125 5.8125 
Q 3.328125 12.796875 3.328125 25.921875 
z
M 12.359375 25.921875 
Q 12.359375 15.96875 16.703125 11.015625 
Q 21.046875 6.0625 27.640625 6.0625 
Q 34.1875 6.0625 38.53125 11.03125 
Q 42.875 16.015625 42.875 26.21875 
Q 42.875 35.84375 38.5 40.796875 
Q 34.125 45.75 27.640625 45.75 
Q 21.046875 45.75 16.703125 40.8125 
Q 12.359375 35.890625 12.359375 25.921875 
z
" id="ArialMT-6f"/>
     <path d="M 16.15625 0 
L 0.296875 51.859375 
L 9.375 51.859375 
L 17.625 21.921875 
L 20.703125 10.796875 
Q 20.90625 11.625 23.390625 21.484375 
L 31.640625 51.859375 
L 40.671875 51.859375 
L 48.4375 21.78125 
L 51.03125 11.859375 
L 54 21.875 
L 62.890625 51.859375 
L 71.4375 51.859375 
L 55.21875 0 
L 46.09375 0 
L 37.84375 31.0625 
L 35.84375 39.890625 
L 25.34375 0 
z
" id="ArialMT-77"/>
     <path d="M 40.4375 19 
L 49.078125 17.875 
Q 47.65625 8.9375 41.8125 3.875 
Q 35.984375 -1.171875 27.484375 -1.171875 
Q 16.84375 -1.171875 10.375 5.78125 
Q 3.90625 12.75 3.90625 25.734375 
Q 3.90625 34.125 6.6875 40.421875 
Q 9.46875 46.734375 15.15625 49.875 
Q 20.84375 53.03125 27.546875 53.03125 
Q 35.984375 53.03125 41.359375 48.75 
Q 46.734375 44.484375 48.25 36.625 
L 39.703125 35.296875 
Q 38.484375 40.53125 35.375 43.15625 
Q 32.28125 45.796875 27.875 45.796875 
Q 21.234375 45.796875 17.078125 41.03125 
Q 12.9375 36.28125 12.9375 25.984375 
Q 12.9375 15.53125 16.9375 10.796875 
Q 20.953125 6.0625 27.390625 6.0625 
Q 32.5625 6.0625 36.03125 9.234375 
Q 39.5 12.40625 40.4375 19 
z
" id="ArialMT-63"/>
     <path d="M 40.578125 0 
L 40.578125 7.625 
Q 34.515625 -1.171875 24.125 -1.171875 
Q 19.53125 -1.171875 15.546875 0.578125 
Q 11.578125 2.34375 9.640625 5 
Q 7.71875 7.671875 6.9375 11.53125 
Q 6.390625 14.109375 6.390625 19.734375 
L 6.390625 51.859375 
L 15.1875 51.859375 
L 15.1875 23.09375 
Q 15.1875 16.21875 15.71875 13.8125 
Q 16.546875 10.359375 19.234375 8.375 
Q 21.921875 6.390625 25.875 6.390625 
Q 29.828125 6.390625 33.296875 8.421875 
Q 36.765625 10.453125 38.203125 13.9375 
Q 39.65625 17.4375 39.65625 24.078125 
L 39.65625 51.859375 
L 48.4375 51.859375 
L 48.4375 0 
z
" id="ArialMT-75"/>
    </defs>
    <g style="fill:#262626;" transform="translate(403.818692 220.657326)scale(0.1 -0.1)">
     <use xlink:href="#ArialMT-44"/>
     <use x="72.216797" xlink:href="#ArialMT-65"/>
     <use x="127.832031" xlink:href="#ArialMT-72"/>
     <use x="161.132812" xlink:href="#ArialMT-69"/>
     <use x="183.349609" xlink:href="#ArialMT-76"/>
     <use x="233.349609" xlink:href="#ArialMT-61"/>
     <use x="288.964844" xlink:href="#ArialMT-74"/>
     <use x="316.748047" xlink:href="#ArialMT-69"/>
     <use x="338.964844" xlink:href="#ArialMT-76"/>
     <use x="388.964844" xlink:href="#ArialMT-65"/>
     <use x="444.580078" xlink:href="#ArialMT-20"/>
     <use x="472.363281" xlink:href="#ArialMT-66"/>
     <use x="500.146484" xlink:href="#ArialMT-61"/>
     <use x="555.761719" xlink:href="#ArialMT-6c"/>
     <use x="577.978516" xlink:href="#ArialMT-6c"/>
     <use x="600.195312" xlink:href="#ArialMT-73"/>
     <use x="650.195312" xlink:href="#ArialMT-20"/>
     <use x="677.978516" xlink:href="#ArialMT-62"/>
     <use x="733.59375" xlink:href="#ArialMT-65"/>
     <use x="789.208984" xlink:href="#ArialMT-6c"/>
     <use x="811.425781" xlink:href="#ArialMT-6f"/>
     <use x="867.041016" xlink:href="#ArialMT-77"/>
     <use x="939.257812" xlink:href="#ArialMT-20"/>
     <use x="967.041016" xlink:href="#ArialMT-30"/>
     <use x="1022.65625" xlink:href="#ArialMT-2e"/>
     <use x="1050.439453" xlink:href="#ArialMT-35"/>
     <use x="1106.054688" xlink:href="#ArialMT-20"/>
     <use x="1133.837891" xlink:href="#ArialMT-61"/>
     <use x="1189.453125" xlink:href="#ArialMT-74"/>
     <use x="1217.236328" xlink:href="#ArialMT-20"/>
     <use x="1245.019531" xlink:href="#ArialMT-63"/>
     <use x="1295.019531" xlink:href="#ArialMT-75"/>
     <use x="1350.634766" xlink:href="#ArialMT-74"/>
     <use x="1378.417969" xlink:href="#ArialMT-6f"/>
     <use x="1434.033203" xlink:href="#ArialMT-66"/>
     <use x="1461.800781" xlink:href="#ArialMT-66"/>
     <use x="1489.583984" xlink:href="#ArialMT-20"/>
     <use x="1517.367188" xlink:href="#ArialMT-30"/>
     <use x="1572.982422" xlink:href="#ArialMT-2e"/>
     <use x="1600.765625" xlink:href="#ArialMT-39"/>
     <use x="1656.380859" xlink:href="#ArialMT-32"/>
    </g>
   </g>
   <g id="legend_1">
    <g id="line2d_23"/>
    <g id="line2d_24">
     <g>
      <use style="fill:#4c72b0;" x="109" xlink:href="#mbebc9693f9" y="99.179688"/>
     </g>
    </g>
    <g id="text_13">
     <!-- Computed values -->
     <defs>
      <path d="M 58.796875 25.09375 
L 68.265625 22.703125 
Q 65.28125 11.03125 57.546875 4.90625 
Q 49.8125 -1.21875 38.625 -1.21875 
Q 27.046875 -1.21875 19.796875 3.484375 
Q 12.546875 8.203125 8.765625 17.140625 
Q 4.984375 26.078125 4.984375 36.328125 
Q 4.984375 47.515625 9.25 55.828125 
Q 13.53125 64.15625 21.40625 68.46875 
Q 29.296875 72.796875 38.765625 72.796875 
Q 49.515625 72.796875 56.828125 67.328125 
Q 64.15625 61.859375 67.046875 51.953125 
L 57.71875 49.75 
Q 55.21875 57.5625 50.484375 61.125 
Q 45.75 64.703125 38.578125 64.703125 
Q 30.328125 64.703125 24.78125 60.734375 
Q 19.234375 56.78125 16.984375 50.109375 
Q 14.75 43.453125 14.75 36.375 
Q 14.75 27.25 17.40625 20.4375 
Q 20.0625 13.625 25.671875 10.25 
Q 31.296875 6.890625 37.84375 6.890625 
Q 45.796875 6.890625 51.3125 11.46875 
Q 56.84375 16.0625 58.796875 25.09375 
z
" id="ArialMT-43"/>
      <path d="M 6.59375 0 
L 6.59375 51.859375 
L 14.453125 51.859375 
L 14.453125 44.578125 
Q 16.890625 48.390625 20.9375 50.703125 
Q 25 53.03125 30.171875 53.03125 
Q 35.9375 53.03125 39.625 50.640625 
Q 43.3125 48.25 44.828125 43.953125 
Q 50.984375 53.03125 60.84375 53.03125 
Q 68.5625 53.03125 72.703125 48.75 
Q 76.859375 44.484375 76.859375 35.59375 
L 76.859375 0 
L 68.109375 0 
L 68.109375 32.671875 
Q 68.109375 37.9375 67.25 40.25 
Q 66.40625 42.578125 64.15625 43.984375 
Q 61.921875 45.40625 58.890625 45.40625 
Q 53.421875 45.40625 49.796875 41.765625 
Q 46.1875 38.140625 46.1875 30.125 
L 46.1875 0 
L 37.40625 0 
L 37.40625 33.6875 
Q 37.40625 39.546875 35.25 42.46875 
Q 33.109375 45.40625 28.21875 45.40625 
Q 24.515625 45.40625 21.359375 43.453125 
Q 18.21875 41.5 16.796875 37.734375 
Q 15.375 33.984375 15.375 26.90625 
L 15.375 0 
z
" id="ArialMT-6d"/>
      <path d="M 6.59375 -19.875 
L 6.59375 51.859375 
L 14.59375 51.859375 
L 14.59375 45.125 
Q 17.4375 49.078125 21 51.046875 
Q 24.5625 53.03125 29.640625 53.03125 
Q 36.28125 53.03125 41.359375 49.609375 
Q 46.4375 46.1875 49.015625 39.953125 
Q 51.609375 33.734375 51.609375 26.3125 
Q 51.609375 18.359375 48.75 11.984375 
Q 45.90625 5.609375 40.453125 2.21875 
Q 35.015625 -1.171875 29 -1.171875 
Q 24.609375 -1.171875 21.109375 0.6875 
Q 17.625 2.546875 15.375 5.375 
L 15.375 -19.875 
z
M 14.546875 25.640625 
Q 14.546875 15.625 18.59375 10.84375 
Q 22.65625 6.0625 28.421875 6.0625 
Q 34.28125 6.0625 38.453125 11.015625 
Q 42.625 15.96875 42.625 26.375 
Q 42.625 36.28125 38.546875 41.203125 
Q 34.46875 46.140625 28.8125 46.140625 
Q 23.1875 46.140625 18.859375 40.890625 
Q 14.546875 35.640625 14.546875 25.640625 
z
" id="ArialMT-70"/>
      <path d="M 40.234375 0 
L 40.234375 6.546875 
Q 35.296875 -1.171875 25.734375 -1.171875 
Q 19.53125 -1.171875 14.328125 2.25 
Q 9.125 5.671875 6.265625 11.796875 
Q 3.421875 17.921875 3.421875 25.875 
Q 3.421875 33.640625 6 39.96875 
Q 8.59375 46.296875 13.765625 49.65625 
Q 18.953125 53.03125 25.34375 53.03125 
Q 30.03125 53.03125 33.6875 51.046875 
Q 37.359375 49.078125 39.65625 45.90625 
L 39.65625 71.578125 
L 48.390625 71.578125 
L 48.390625 0 
z
M 12.453125 25.875 
Q 12.453125 15.921875 16.640625 10.984375 
Q 20.84375 6.0625 26.5625 6.0625 
Q 32.328125 6.0625 36.34375 10.765625 
Q 40.375 15.484375 40.375 25.140625 
Q 40.375 35.796875 36.265625 40.765625 
Q 32.171875 45.75 26.171875 45.75 
Q 20.3125 45.75 16.375 40.96875 
Q 12.453125 36.1875 12.453125 25.875 
z
" id="ArialMT-64"/>
     </defs>
     <g style="fill:#262626;" transform="translate(127 102.679688)scale(0.1 -0.1)">
      <use xlink:href="#ArialMT-43"/>
      <use x="72.216797" xlink:href="#ArialMT-6f"/>
      <use x="127.832031" xlink:href="#ArialMT-6d"/>
      <use x="211.132812" xlink:href="#ArialMT-70"/>
      <use x="266.748047" xlink:href="#ArialMT-75"/>
      <use x="322.363281" xlink:href="#ArialMT-74"/>
      <use x="350.146484" xlink:href="#ArialMT-65"/>
      <use x="405.761719" xlink:href="#ArialMT-64"/>
      <use x="461.376953" xlink:href="#ArialMT-20"/>
      <use x="489.160156" xlink:href="#ArialMT-76"/>
      <use x="539.160156" xlink:href="#ArialMT-61"/>
      <use x="594.775391" xlink:href="#ArialMT-6c"/>
      <use x="616.992188" xlink:href="#ArialMT-75"/>
      <use x="672.607422" xlink:href="#ArialMT-65"/>
      <use x="728.222656" xlink:href="#ArialMT-73"/>
     </g>
    </g>
    <g id="line2d_25">
     <path d="M 99 113.446875 
L 119 113.446875 
" style="fill:none;stroke:#55a868;stroke-linecap:round;stroke-width:1.75;"/>
    </g>
    <g id="line2d_26"/>
    <g id="text_14">
     <!-- Polynomial fit of order 3 -->
     <defs>
      <path d="M 7.71875 0 
L 7.71875 71.578125 
L 34.71875 71.578125 
Q 41.84375 71.578125 45.609375 70.90625 
Q 50.875 70.015625 54.4375 67.546875 
Q 58.015625 65.09375 60.1875 60.640625 
Q 62.359375 56.203125 62.359375 50.875 
Q 62.359375 41.75 56.546875 35.421875 
Q 50.734375 29.109375 35.546875 29.109375 
L 17.1875 29.109375 
L 17.1875 0 
z
M 17.1875 37.546875 
L 35.6875 37.546875 
Q 44.875 37.546875 48.734375 40.96875 
Q 52.59375 44.390625 52.59375 50.59375 
Q 52.59375 55.078125 50.3125 58.265625 
Q 48.046875 61.46875 44.34375 62.5 
Q 41.9375 63.140625 35.5 63.140625 
L 17.1875 63.140625 
z
" id="ArialMT-50"/>
      <path d="M 6.203125 -19.96875 
L 5.21875 -11.71875 
Q 8.109375 -12.5 10.25 -12.5 
Q 13.1875 -12.5 14.9375 -11.515625 
Q 16.703125 -10.546875 17.828125 -8.796875 
Q 18.65625 -7.46875 20.515625 -2.25 
Q 20.75 -1.515625 21.296875 -0.09375 
L 1.609375 51.859375 
L 11.078125 51.859375 
L 21.875 21.828125 
Q 23.96875 16.109375 25.640625 9.8125 
Q 27.15625 15.875 29.25 21.625 
L 40.328125 51.859375 
L 49.125 51.859375 
L 29.390625 -0.875 
Q 26.21875 -9.421875 24.46875 -12.640625 
Q 22.125 -17 19.09375 -19.015625 
Q 16.0625 -21.046875 11.859375 -21.046875 
Q 9.328125 -21.046875 6.203125 -19.96875 
z
" id="ArialMT-79"/>
      <path d="M 6.59375 0 
L 6.59375 51.859375 
L 14.5 51.859375 
L 14.5 44.484375 
Q 20.21875 53.03125 31 53.03125 
Q 35.6875 53.03125 39.625 51.34375 
Q 43.5625 49.65625 45.515625 46.921875 
Q 47.46875 44.1875 48.25 40.4375 
Q 48.734375 37.984375 48.734375 31.890625 
L 48.734375 0 
L 39.9375 0 
L 39.9375 31.546875 
Q 39.9375 36.921875 38.90625 39.578125 
Q 37.890625 42.234375 35.28125 43.8125 
Q 32.671875 45.40625 29.15625 45.40625 
Q 23.53125 45.40625 19.453125 41.84375 
Q 15.375 38.28125 15.375 28.328125 
L 15.375 0 
z
" id="ArialMT-6e"/>
      <path d="M 4.203125 18.890625 
L 12.984375 20.0625 
Q 14.5 12.59375 18.140625 9.296875 
Q 21.78125 6 27 6 
Q 33.203125 6 37.46875 10.296875 
Q 41.75 14.59375 41.75 20.953125 
Q 41.75 27 37.796875 30.921875 
Q 33.84375 34.859375 27.734375 34.859375 
Q 25.25 34.859375 21.53125 33.890625 
L 22.515625 41.609375 
Q 23.390625 41.5 23.921875 41.5 
Q 29.546875 41.5 34.03125 44.421875 
Q 38.53125 47.359375 38.53125 53.46875 
Q 38.53125 58.296875 35.25 61.46875 
Q 31.984375 64.65625 26.8125 64.65625 
Q 21.6875 64.65625 18.265625 61.421875 
Q 14.84375 58.203125 13.875 51.765625 
L 5.078125 53.328125 
Q 6.6875 62.15625 12.390625 67.015625 
Q 18.109375 71.875 26.609375 71.875 
Q 32.46875 71.875 37.390625 69.359375 
Q 42.328125 66.84375 44.9375 62.5 
Q 47.5625 58.15625 47.5625 53.265625 
Q 47.5625 48.640625 45.0625 44.828125 
Q 42.578125 41.015625 37.703125 38.765625 
Q 44.046875 37.3125 47.5625 32.6875 
Q 51.078125 28.078125 51.078125 21.140625 
Q 51.078125 11.765625 44.234375 5.25 
Q 37.40625 -1.265625 26.953125 -1.265625 
Q 17.53125 -1.265625 11.296875 4.34375 
Q 5.078125 9.96875 4.203125 18.890625 
z
" id="ArialMT-33"/>
     </defs>
     <g style="fill:#262626;" transform="translate(127 116.946875)scale(0.1 -0.1)">
      <use xlink:href="#ArialMT-50"/>
      <use x="66.699219" xlink:href="#ArialMT-6f"/>
      <use x="122.314453" xlink:href="#ArialMT-6c"/>
      <use x="144.53125" xlink:href="#ArialMT-79"/>
      <use x="194.53125" xlink:href="#ArialMT-6e"/>
      <use x="250.146484" xlink:href="#ArialMT-6f"/>
      <use x="305.761719" xlink:href="#ArialMT-6d"/>
      <use x="389.0625" xlink:href="#ArialMT-69"/>
      <use x="411.279297" xlink:href="#ArialMT-61"/>
      <use x="466.894531" xlink:href="#ArialMT-6c"/>
      <use x="489.111328" xlink:href="#ArialMT-20"/>
      <use x="516.894531" xlink:href="#ArialMT-66"/>
      <use x="544.677734" xlink:href="#ArialMT-69"/>
      <use x="566.894531" xlink:href="#ArialMT-74"/>
      <use x="594.677734" xlink:href="#ArialMT-20"/>
      <use x="622.460938" xlink:href="#ArialMT-6f"/>
      <use x="678.076172" xlink:href="#ArialMT-66"/>
      <use x="705.859375" xlink:href="#ArialMT-20"/>
      <use x="733.642578" xlink:href="#ArialMT-6f"/>
      <use x="789.257812" xlink:href="#ArialMT-72"/>
      <use x="822.558594" xlink:href="#ArialMT-64"/>
      <use x="878.173828" xlink:href="#ArialMT-65"/>
      <use x="933.789062" xlink:href="#ArialMT-72"/>
      <use x="967.089844" xlink:href="#ArialMT-20"/>
      <use x="994.873047" xlink:href="#ArialMT-33"/>
     </g>
    </g>
   </g>
  </g>
  <g id="axes_2">
   <g id="patch_8">
    <path d="M 90 630 
L 648 630 
L 648 382.909091 
L 90 382.909091 
z
" style="fill:#eaeaf2;"/>
   </g>
   <g id="matplotlib.axis_3">
    <g id="xtick_6">
     <g id="line2d_27">
      <path clip-path="url(#p40edc6f689)" d="M 115.363636 630 
L 115.363636 382.909091 
" style="fill:none;stroke:#ffffff;stroke-linecap:round;"/>
     </g>
     <g id="line2d_28"/>
     <g id="text_15">
      <!-- 0.75 -->
      <g style="fill:#262626;" transform="translate(105.633168 644.157812)scale(0.1 -0.1)">
       <use xlink:href="#ArialMT-30"/>
       <use x="55.615234" xlink:href="#ArialMT-2e"/>
       <use x="83.398438" xlink:href="#ArialMT-37"/>
       <use x="139.013672" xlink:href="#ArialMT-35"/>
      </g>
     </g>
    </g>
    <g id="xtick_7">
     <g id="line2d_29">
      <path clip-path="url(#p40edc6f689)" d="M 224.819805 630 
L 224.819805 382.909091 
" style="fill:none;stroke:#ffffff;stroke-linecap:round;"/>
     </g>
     <g id="line2d_30"/>
     <g id="text_16">
      <!-- 0.80 -->
      <g style="fill:#262626;" transform="translate(215.089336 644.157812)scale(0.1 -0.1)">
       <use xlink:href="#ArialMT-30"/>
       <use x="55.615234" xlink:href="#ArialMT-2e"/>
       <use x="83.398438" xlink:href="#ArialMT-38"/>
       <use x="139.013672" xlink:href="#ArialMT-30"/>
      </g>
     </g>
    </g>
    <g id="xtick_8">
     <g id="line2d_31">
      <path clip-path="url(#p40edc6f689)" d="M 334.275974 630 
L 334.275974 382.909091 
" style="fill:none;stroke:#ffffff;stroke-linecap:round;"/>
     </g>
     <g id="line2d_32"/>
     <g id="text_17">
      <!-- 0.85 -->
      <g style="fill:#262626;" transform="translate(324.545505 644.157812)scale(0.1 -0.1)">
       <use xlink:href="#ArialMT-30"/>
       <use x="55.615234" xlink:href="#ArialMT-2e"/>
       <use x="83.398438" xlink:href="#ArialMT-38"/>
       <use x="139.013672" xlink:href="#ArialMT-35"/>
      </g>
     </g>
    </g>
    <g id="xtick_9">
     <g id="line2d_33">
      <path clip-path="url(#p40edc6f689)" d="M 443.732143 630 
L 443.732143 382.909091 
" style="fill:none;stroke:#ffffff;stroke-linecap:round;"/>
     </g>
     <g id="line2d_34"/>
     <g id="text_18">
      <!-- 0.90 -->
      <g style="fill:#262626;" transform="translate(434.001674 644.157812)scale(0.1 -0.1)">
       <use xlink:href="#ArialMT-30"/>
       <use x="55.615234" xlink:href="#ArialMT-2e"/>
       <use x="83.398438" xlink:href="#ArialMT-39"/>
       <use x="139.013672" xlink:href="#ArialMT-30"/>
      </g>
     </g>
    </g>
    <g id="xtick_10">
     <g id="line2d_35">
      <path clip-path="url(#p40edc6f689)" d="M 553.188312 630 
L 553.188312 382.909091 
" style="fill:none;stroke:#ffffff;stroke-linecap:round;"/>
     </g>
     <g id="line2d_36"/>
     <g id="text_19">
      <!-- 0.95 -->
      <g style="fill:#262626;" transform="translate(543.457843 644.157812)scale(0.1 -0.1)">
       <use xlink:href="#ArialMT-30"/>
       <use x="55.615234" xlink:href="#ArialMT-2e"/>
       <use x="83.398438" xlink:href="#ArialMT-39"/>
       <use x="139.013672" xlink:href="#ArialMT-35"/>
      </g>
     </g>
    </g>
    <g id="text_20">
     <!-- Cutoff -->
     <g style="fill:#262626;" transform="translate(354.327891 658.018906)scale(0.11 -0.11)">
      <use xlink:href="#ArialMT-43"/>
      <use x="72.216797" xlink:href="#ArialMT-75"/>
      <use x="127.832031" xlink:href="#ArialMT-74"/>
      <use x="155.615234" xlink:href="#ArialMT-6f"/>
      <use x="211.230469" xlink:href="#ArialMT-66"/>
      <use x="238.998047" xlink:href="#ArialMT-66"/>
     </g>
    </g>
   </g>
   <g id="matplotlib.axis_4">
    <g id="ytick_6">
     <g id="line2d_37">
      <path clip-path="url(#p40edc6f689)" d="M 90 611.128596 
L 648 611.128596 
" style="fill:none;stroke:#ffffff;stroke-linecap:round;"/>
     </g>
     <g id="line2d_38"/>
     <g id="text_21">
      <!-- −0.50 -->
      <defs>
       <path d="M 52.828125 31.203125 
L 5.5625 31.203125 
L 5.5625 39.40625 
L 52.828125 39.40625 
z
" id="ArialMT-2212"/>
      </defs>
      <g style="fill:#262626;" transform="translate(57.698437 614.707503)scale(0.1 -0.1)">
       <use xlink:href="#ArialMT-2212"/>
       <use x="58.398438" xlink:href="#ArialMT-30"/>
       <use x="114.013672" xlink:href="#ArialMT-2e"/>
       <use x="141.796875" xlink:href="#ArialMT-35"/>
       <use x="197.412109" xlink:href="#ArialMT-30"/>
      </g>
     </g>
    </g>
    <g id="ytick_7">
     <g id="line2d_39">
      <path clip-path="url(#p40edc6f689)" d="M 90 582.209921 
L 648 582.209921 
" style="fill:none;stroke:#ffffff;stroke-linecap:round;"/>
     </g>
     <g id="line2d_40"/>
     <g id="text_22">
      <!-- −0.25 -->
      <g style="fill:#262626;" transform="translate(57.698437 585.788827)scale(0.1 -0.1)">
       <use xlink:href="#ArialMT-2212"/>
       <use x="58.398438" xlink:href="#ArialMT-30"/>
       <use x="114.013672" xlink:href="#ArialMT-2e"/>
       <use x="141.796875" xlink:href="#ArialMT-32"/>
       <use x="197.412109" xlink:href="#ArialMT-35"/>
      </g>
     </g>
    </g>
    <g id="ytick_8">
     <g id="line2d_41">
      <path clip-path="url(#p40edc6f689)" d="M 90 553.291245 
L 648 553.291245 
" style="fill:none;stroke:#ffffff;stroke-linecap:round;"/>
     </g>
     <g id="line2d_42"/>
     <g id="text_23">
      <!-- 0.00 -->
      <g style="fill:#262626;" transform="translate(63.539062 556.870152)scale(0.1 -0.1)">
       <use xlink:href="#ArialMT-30"/>
       <use x="55.615234" xlink:href="#ArialMT-2e"/>
       <use x="83.398438" xlink:href="#ArialMT-30"/>
       <use x="139.013672" xlink:href="#ArialMT-30"/>
      </g>
     </g>
    </g>
    <g id="ytick_9">
     <g id="line2d_43">
      <path clip-path="url(#p40edc6f689)" d="M 90 524.37257 
L 648 524.37257 
" style="fill:none;stroke:#ffffff;stroke-linecap:round;"/>
     </g>
     <g id="line2d_44"/>
     <g id="text_24">
      <!-- 0.25 -->
      <g style="fill:#262626;" transform="translate(63.539062 527.951476)scale(0.1 -0.1)">
       <use xlink:href="#ArialMT-30"/>
       <use x="55.615234" xlink:href="#ArialMT-2e"/>
       <use x="83.398438" xlink:href="#ArialMT-32"/>
       <use x="139.013672" xlink:href="#ArialMT-35"/>
      </g>
     </g>
    </g>
    <g id="ytick_10">
     <g id="line2d_45">
      <path clip-path="url(#p40edc6f689)" d="M 90 495.453894 
L 648 495.453894 
" style="fill:none;stroke:#ffffff;stroke-linecap:round;"/>
     </g>
     <g id="line2d_46"/>
     <g id="text_25">
      <!-- 0.50 -->
      <g style="fill:#262626;" transform="translate(63.539062 499.032801)scale(0.1 -0.1)">
       <use xlink:href="#ArialMT-30"/>
       <use x="55.615234" xlink:href="#ArialMT-2e"/>
       <use x="83.398438" xlink:href="#ArialMT-35"/>
       <use x="139.013672" xlink:href="#ArialMT-30"/>
      </g>
     </g>
    </g>
    <g id="ytick_11">
     <g id="line2d_47">
      <path clip-path="url(#p40edc6f689)" d="M 90 466.535219 
L 648 466.535219 
" style="fill:none;stroke:#ffffff;stroke-linecap:round;"/>
     </g>
     <g id="line2d_48"/>
     <g id="text_26">
      <!-- 0.75 -->
      <g style="fill:#262626;" transform="translate(63.539062 470.114125)scale(0.1 -0.1)">
       <use xlink:href="#ArialMT-30"/>
       <use x="55.615234" xlink:href="#ArialMT-2e"/>
       <use x="83.398438" xlink:href="#ArialMT-37"/>
       <use x="139.013672" xlink:href="#ArialMT-35"/>
      </g>
     </g>
    </g>
    <g id="ytick_12">
     <g id="line2d_49">
      <path clip-path="url(#p40edc6f689)" d="M 90 437.616543 
L 648 437.616543 
" style="fill:none;stroke:#ffffff;stroke-linecap:round;"/>
     </g>
     <g id="line2d_50"/>
     <g id="text_27">
      <!-- 1.00 -->
      <defs>
       <path d="M 37.25 0 
L 28.46875 0 
L 28.46875 56 
Q 25.296875 52.984375 20.140625 49.953125 
Q 14.984375 46.921875 10.890625 45.40625 
L 10.890625 53.90625 
Q 18.265625 57.375 23.78125 62.296875 
Q 29.296875 67.234375 31.59375 71.875 
L 37.25 71.875 
z
" id="ArialMT-31"/>
      </defs>
      <g style="fill:#262626;" transform="translate(63.539062 441.195449)scale(0.1 -0.1)">
       <use xlink:href="#ArialMT-31"/>
       <use x="55.615234" xlink:href="#ArialMT-2e"/>
       <use x="83.398438" xlink:href="#ArialMT-30"/>
       <use x="139.013672" xlink:href="#ArialMT-30"/>
      </g>
     </g>
    </g>
    <g id="ytick_13">
     <g id="line2d_51">
      <path clip-path="url(#p40edc6f689)" d="M 90 408.697868 
L 648 408.697868 
" style="fill:none;stroke:#ffffff;stroke-linecap:round;"/>
     </g>
     <g id="line2d_52"/>
     <g id="text_28">
      <!-- 1.25 -->
      <g style="fill:#262626;" transform="translate(63.539062 412.276774)scale(0.1 -0.1)">
       <use xlink:href="#ArialMT-31"/>
       <use x="55.615234" xlink:href="#ArialMT-2e"/>
       <use x="83.398438" xlink:href="#ArialMT-32"/>
       <use x="139.013672" xlink:href="#ArialMT-35"/>
      </g>
     </g>
    </g>
    <g id="text_29">
     <!-- dR2 / dCutoff -->
     <defs>
      <path d="M 0 -1.21875 
L 20.75 72.796875 
L 27.78125 72.796875 
L 7.078125 -1.21875 
z
" id="ArialMT-2f"/>
     </defs>
     <g style="fill:#262626;" transform="translate(51.512187 538.858139)rotate(-90)scale(0.11 -0.11)">
      <use xlink:href="#ArialMT-64"/>
      <use x="55.615234" xlink:href="#ArialMT-52"/>
      <use x="127.832031" xlink:href="#ArialMT-32"/>
      <use x="183.447266" xlink:href="#ArialMT-20"/>
      <use x="211.230469" xlink:href="#ArialMT-2f"/>
      <use x="239.013672" xlink:href="#ArialMT-20"/>
      <use x="266.796875" xlink:href="#ArialMT-64"/>
      <use x="322.412109" xlink:href="#ArialMT-43"/>
      <use x="394.628906" xlink:href="#ArialMT-75"/>
      <use x="450.244141" xlink:href="#ArialMT-74"/>
      <use x="478.027344" xlink:href="#ArialMT-6f"/>
      <use x="533.642578" xlink:href="#ArialMT-66"/>
      <use x="561.410156" xlink:href="#ArialMT-66"/>
     </g>
    </g>
   </g>
   <g id="line2d_53">
    <path clip-path="url(#p40edc6f689)" d="M 115.363636 407.896229 
L 120.487603 406.530741 
L 125.61157 405.23659 
L 130.735537 404.013776 
L 135.859504 402.862299 
L 140.983471 401.782159 
L 146.107438 400.773356 
L 151.231405 399.83589 
L 156.355372 398.969761 
L 161.479339 398.174969 
L 166.603306 397.451513 
L 171.727273 396.799395 
L 176.85124 396.218614 
L 181.975207 395.70917 
L 187.099174 395.271063 
L 192.22314 394.904292 
L 197.347107 394.608859 
L 202.471074 394.384763 
L 207.595041 394.232004 
L 212.719008 394.150581 
L 217.842975 394.140496 
L 222.966942 394.201747 
L 228.090909 394.334336 
L 233.214876 394.538262 
L 238.338843 394.813524 
L 243.46281 395.160124 
L 248.586777 395.57806 
L 253.710744 396.067334 
L 258.834711 396.627944 
L 263.958678 397.259891 
L 269.082645 397.963176 
L 274.206612 398.737797 
L 279.330579 399.583756 
L 284.454545 400.501051 
L 289.578512 401.489683 
L 294.702479 402.549652 
L 299.826446 403.680959 
L 304.950413 404.883602 
L 310.07438 406.157582 
L 315.198347 407.502899 
L 320.322314 408.919553 
L 325.446281 410.407545 
L 330.570248 411.966873 
L 335.694215 413.597538 
L 340.818182 415.29954 
L 345.942149 417.072879 
L 351.066116 418.917555 
L 356.190083 420.833568 
L 361.31405 422.820918 
L 366.438017 424.879605 
L 371.561983 427.009629 
L 376.68595 429.210989 
L 381.809917 431.483687 
L 386.933884 433.827722 
L 392.057851 436.243094 
L 397.181818 438.729803 
L 402.305785 441.287848 
L 407.429752 443.917231 
L 412.553719 446.617951 
L 417.677686 449.390008 
L 422.801653 452.233401 
L 427.92562 455.148132 
L 433.049587 458.1342 
L 438.173554 461.191604 
L 443.297521 464.320346 
L 448.421488 467.520424 
L 453.545455 470.79184 
L 458.669421 474.134592 
L 463.793388 477.548682 
L 468.917355 481.034108 
L 474.041322 484.590872 
L 479.165289 488.218972 
L 484.289256 491.918409 
L 489.413223 495.689184 
L 494.53719 499.531295 
L 499.661157 503.444743 
L 504.785124 507.429529 
L 509.909091 511.485651 
L 515.033058 515.61311 
L 520.157025 519.811906 
L 525.280992 524.082039 
L 530.404959 528.42351 
L 535.528926 532.836317 
L 540.652893 537.320461 
L 545.77686 541.875942 
L 550.900826 546.50276 
L 556.024793 551.200915 
L 561.14876 555.970407 
L 566.272727 560.811236 
L 571.396694 565.723402 
L 576.520661 570.706905 
L 581.644628 575.761745 
L 586.768595 580.887922 
L 591.892562 586.085435 
L 597.016529 591.354286 
L 602.140496 596.694474 
L 607.264463 602.105999 
L 612.38843 607.588861 
L 617.512397 613.143059 
L 622.636364 618.768595 
" style="fill:none;stroke:#4c72b0;stroke-linecap:round;stroke-width:1.75;"/>
   </g>
   <g id="patch_9">
    <path d="M 90 630 
L 90 382.909091 
" style="fill:none;"/>
   </g>
   <g id="patch_10">
    <path d="M 648 630 
L 648 382.909091 
" style="fill:none;"/>
   </g>
   <g id="patch_11">
    <path d="M 90 630 
L 648 630 
" style="fill:none;"/>
   </g>
   <g id="patch_12">
    <path d="M 90 382.909091 
L 648 382.909091 
" style="fill:none;"/>
   </g>
  </g>
 </g>
 <defs>
  <clipPath id="p25b1bb3911">
   <rect height="247.090909" width="558" x="90" y="86.4"/>
  </clipPath>
  <clipPath id="p40edc6f689">
   <rect height="247.090909" width="558" x="90" y="382.909091"/>
  </clipPath>
 </defs>
</svg>
